<svg width="16" height="16" viewBox="0 0 16 16" fill="none" xmlns="http://www.w3.org/2000/svg">
<path d="M8.39745 1.71065C8.30093 1.72665 8.23015 1.81012 8.23015 1.90796V7.18096C8.23015 7.29142 8.31969 7.38096 8.43015 7.38096H15.4911C15.6015 7.38096 15.6911 7.29142 15.6911 7.18096V0.737913C15.6911 0.614401 15.5802 0.520412 15.4584 0.540604L8.39745 1.71065ZM8.23015 14.1113C8.23015 14.2093 8.30123 14.2929 8.39801 14.3087L15.4589 15.4584C15.5806 15.4782 15.6911 15.3843 15.6911 15.261V8.8212C15.6911 8.71074 15.6015 8.6212 15.4911 8.6212H8.43015C8.31969 8.6212 8.23015 8.71074 8.23015 8.8212V14.1113ZM0.345398 7.17901C0.345398 7.28947 0.434941 7.37901 0.545398 7.37901H6.45203C6.56248 7.37901 6.65203 7.28947 6.65203 7.17901V2.17932C6.65203 2.05581 6.54119 1.96182 6.41934 1.98201L0.512707 2.96066C0.416183 2.97665 0.345398 3.06013 0.345398 3.15797V7.17901ZM0.345398 12.8808C0.345398 12.9789 0.416472 13.0625 0.513242 13.0782L6.41987 14.0404C6.54156 14.0602 6.65203 13.9663 6.65203 13.843V8.8212C6.65203 8.71074 6.56248 8.6212 6.45203 8.6212H0.545398C0.434941 8.6212 0.345398 8.71074 0.345398 8.8212V12.8808Z" fill="white"/>
</svg>
