<svg width="23" height="23" viewBox="0 0 23 23" fill="none" xmlns="http://www.w3.org/2000/svg">
<path fill-rule="evenodd" clip-rule="evenodd" d="M17.969 10.5417L17.963 10.7748L17.969 11.0209L17.9633 11.2556L17.9689 11.5001L17.7881 19.4094C17.7656 20.3937 17.017 21.2089 16.0381 21.3149C13.0215 21.6416 9.97844 21.6416 6.96183 21.3149C5.98299 21.2089 5.23435 20.3937 5.21185 19.4094L5.03104 11.5001L5.03666 11.254L5.03105 11.0209L5.03695 10.7758L5.03101 10.5417L5.19268 4.177C5.19375 4.13494 5.19578 4.0931 5.19877 4.05152L5.20943 3.60861C5.23379 2.59593 6.00724 1.75929 7.01489 1.65562C7.09875 1.647 7.18263 1.63861 7.26653 1.63047C7.38031 1.60402 7.49699 1.58474 7.61608 1.57313C10.1992 1.32137 12.8007 1.32137 15.3839 1.57313C15.503 1.58474 15.6196 1.60402 15.7334 1.63046C15.8173 1.63861 15.9012 1.64699 15.9851 1.65562C16.9928 1.75929 17.7662 2.59593 17.7906 3.60861L17.8013 4.05253C17.8042 4.09378 17.8062 4.13528 17.8073 4.177L17.969 10.5417ZM15.3333 17.0104C15.7303 17.0104 16.0521 16.6886 16.0521 16.2917C16.0521 15.8947 15.7303 15.5729 15.3333 15.5729H7.66666C7.2697 15.5729 6.94791 15.8947 6.94791 16.2917C6.94791 16.6886 7.2697 17.0104 7.66666 17.0104H15.3333ZM11.5 20.7959C12.2939 20.7959 12.9375 20.1523 12.9375 19.3584C12.9375 18.5645 12.2939 17.9209 11.5 17.9209C10.7061 17.9209 10.0625 18.5645 10.0625 19.3584C10.0625 20.1523 10.7061 20.7959 11.5 20.7959Z" fill="#0079F0"/>
</svg>
