<svg width="17" height="17" viewBox="0 0 17 17" fill="none" xmlns="http://www.w3.org/2000/svg">
<g clip-path="url(#clip0_1_9460)">
<path d="M16.0084 1.48748C15.9375 1.27498 15.725 1.06248 15.5125 0.991644C12.5375 0.212477 9.49169 1.13331 7.43752 3.54164L6.65836 4.46248L4.74586 4.03748C3.82502 3.68331 2.83336 4.10831 2.40836 4.95831L0.850024 7.72081C0.708358 7.93331 0.708358 8.14581 0.850024 8.35831C0.920858 8.57081 1.13336 8.71248 1.34586 8.78331L3.54169 9.27914C3.32919 9.84581 3.25836 10.4125 3.11669 10.9791C3.11669 11.1916 3.18752 11.4041 3.32919 11.5458L5.52502 13.7416C5.66669 13.8833 5.80836 13.9541 6.02086 13.9541H6.09169C6.72919 13.8833 7.29586 13.8125 7.86252 13.6L8.28752 15.725C8.35836 15.9375 8.50002 16.15 8.71252 16.2208C8.78336 16.2916 8.92502 16.2916 8.99586 16.2916C9.13752 16.2916 9.20836 16.2916 9.35002 16.2208L12.1125 14.6625C12.8917 14.2375 13.3167 13.2458 13.1042 12.325L12.6084 10.3416L13.4584 9.56248C15.7959 7.57914 16.7875 4.39164 16.0084 1.48748ZM5.17086 6.23331C4.74586 6.79998 4.32086 7.36664 4.03752 7.93331L2.55002 7.57914L3.61252 5.66664C3.75419 5.38331 4.03752 5.31248 4.39169 5.38331L5.59586 5.66664L5.17086 6.23331ZM11.3334 13.3875L9.42086 14.45L9.13752 13.0333C9.77502 12.75 10.3417 12.325 10.8375 11.9L11.3334 11.4041L11.6167 12.6083C11.7584 12.9625 11.5459 13.3166 11.3334 13.3875ZM11.8292 6.23331C11.2625 6.23331 10.7667 5.73748 10.7667 5.17081C10.7667 4.60414 11.2625 4.10831 11.8292 4.10831C12.3959 4.10831 12.8917 4.60414 12.8917 5.17081C12.8917 5.73748 12.4667 6.23331 11.8292 6.23331Z" fill="#0079F0"/>
</g>
<defs>
<clipPath id="clip0_1_9460">
<rect width="17" height="17" fill="white"/>
</clipPath>
</defs>
</svg>
