<svg width="31" height="21" viewBox="0 0 31 21" fill="none" xmlns="http://www.w3.org/2000/svg">
<path d="M6.24292 0.628098H13.9158C14.9869 0.628098 15.6531 1.50985 15.4032 2.59523L11.8309 18.086C11.5788 19.1676 10.5064 20.0501 9.43462 20.0501H1.76245C0.692876 20.0501 0.0252099 19.1676 0.27507 18.086L3.84886 2.59523C4.09872 1.50985 5.17054 0.628098 6.24292 0.628098Z" fill="#E21836"/>
<path d="M13.2769 0.626999H22.1006C23.1715 0.626999 22.6886 1.50875 22.4367 2.59413L18.8649 18.0849C18.6143 19.1665 18.6925 20.049 17.6194 20.049H8.79571C7.72258 20.049 7.05847 19.1665 7.31057 18.0849L10.8821 2.59413C11.1357 1.50875 12.2053 0.626999 13.2769 0.626999Z" fill="#00447C"/>
<path d="M21.7507 0.626999H29.4237C30.4962 0.626999 31.1624 1.50875 30.9105 2.59413L27.3387 18.0849C27.0866 19.1665 26.0135 20.049 24.9411 20.049H17.2718C16.1986 20.049 15.533 19.1665 15.7844 18.0849L19.3567 2.59413C19.6065 1.50875 20.6776 0.626999 21.7507 0.626999Z" fill="#007B84"/>
<path d="M8.24632 5.59129C7.45728 5.59941 7.22425 5.59129 7.14982 5.57353C7.1212 5.71086 6.58875 8.19159 6.58726 8.19367C6.47261 8.69556 6.3892 9.05332 6.10587 9.28434C5.94503 9.41864 5.75726 9.48343 5.53957 9.48343C5.18965 9.48343 4.9858 9.30795 4.95157 8.97512L4.94503 8.86084C4.94503 8.86084 5.05163 8.18857 5.05163 8.18479C5.05163 8.18479 5.61045 5.92412 5.7105 5.62529C5.71574 5.60829 5.71724 5.59941 5.71854 5.59129C4.63083 5.60092 4.43801 5.59129 4.42473 5.57353C4.41744 5.5979 4.39051 5.73806 4.39051 5.73806L3.81991 8.28604L3.77091 8.50213L3.67609 9.20897C3.67609 9.41864 3.71686 9.58978 3.79802 9.73447C4.05798 10.1933 4.79952 10.262 5.21901 10.262C5.7595 10.262 6.26652 10.1461 6.60914 9.93432C7.20387 9.57939 7.35947 9.02461 7.49824 8.5316L7.56257 8.27867C7.56257 8.27867 8.13823 5.93073 8.23604 5.62529C8.23978 5.60829 8.24127 5.59941 8.24632 5.59129ZM10.2049 7.48539C10.0662 7.48539 9.81257 7.51939 9.58478 7.63216C9.50211 7.67504 9.42394 7.72453 9.34146 7.77383L9.4159 7.50239L9.37513 7.45668C8.89205 7.55547 8.78395 7.5687 8.33772 7.63216L8.30032 7.65729C8.24851 8.09117 8.2025 8.41739 8.01043 9.27025C7.93731 9.58457 7.86138 9.90191 7.78526 10.2155L7.80583 10.2553C8.2631 10.231 8.40187 10.231 8.79929 10.2376L8.83146 10.2022C8.88195 9.94101 8.8885 9.87981 9.00034 9.35072C9.05289 9.09986 9.16248 8.54867 9.21653 8.35241C9.31584 8.30595 9.41384 8.26023 9.50735 8.26023C9.73009 8.26023 9.70298 8.45649 9.69437 8.5347C9.68483 8.66598 9.60367 9.09476 9.52044 9.46292L9.4649 9.70055C9.42618 9.87603 9.38373 10.0466 9.34502 10.2206L9.36185 10.2553C9.81257 10.231 9.95003 10.231 10.3349 10.2376L10.3802 10.2022C10.4498 9.79424 10.4701 9.68506 10.5936 9.09099L10.6557 8.81804C10.7763 8.28385 10.8369 8.01297 10.7456 7.79235C10.6491 7.54508 10.4176 7.48539 10.2049 7.48539ZM12.3929 8.04469C12.1534 8.09116 12.0006 8.12213 11.8487 8.14216C11.6982 8.16652 11.5513 8.18862 11.3198 8.22111L11.3015 8.23793L11.2847 8.25134C11.2605 8.4255 11.2437 8.57605 11.2117 8.75304C11.1846 8.93608 11.1429 9.14405 11.075 9.44288C11.0224 9.67163 10.9953 9.75134 10.9654 9.83181C10.9362 9.91228 10.9041 9.99048 10.845 10.2154L10.8588 10.2362L10.8704 10.2553C11.0868 10.2449 11.2284 10.2376 11.3739 10.2362C11.5192 10.2309 11.6697 10.2362 11.9028 10.2375L11.9231 10.2207L11.945 10.2022C11.9787 9.99936 11.9837 9.94477 12.0043 9.84579C12.0247 9.73963 12.0599 9.59267 12.1461 9.20015C12.1868 9.01579 12.2323 8.832 12.2746 8.64386C12.3185 8.45648 12.3645 8.27193 12.4083 8.08757L12.4017 8.06528L12.3929 8.04469ZM12.398 7.29059C12.1804 7.16082 11.7983 7.202 11.5411 7.38126C11.2847 7.55693 11.2555 7.80627 11.4725 7.93774C11.6864 8.06392 12.07 8.02633 12.3249 7.84556C12.5808 7.66611 12.6127 7.41904 12.398 7.29059ZM13.7146 10.296C14.155 10.296 14.6065 10.1734 14.9463 9.80957C15.2078 9.51452 15.3276 9.07554 15.3692 8.89476C15.5044 8.29559 15.3991 8.01584 15.2669 7.84546C15.066 7.58573 14.711 7.50243 14.3428 7.50243C14.1214 7.50243 13.594 7.52453 13.1819 7.90817C12.8861 8.1849 12.7494 8.56042 12.6669 8.92045C12.5837 9.28728 12.4879 9.94766 13.0892 10.1934C13.2747 10.2739 13.5421 10.296 13.7146 10.296ZM13.6802 8.94784C13.7817 8.49412 13.9016 8.11331 14.2076 8.11331C14.4473 8.11331 14.4647 8.39665 14.3581 8.85189C14.339 8.95294 14.2515 9.32865 14.1331 9.48864C14.0505 9.6067 13.9527 9.67829 13.8446 9.67829C13.8124 9.67829 13.6211 9.67829 13.6181 9.39137C13.6166 9.2497 13.6452 9.105 13.6802 8.94784ZM16.4702 10.2376L16.5046 10.2023C16.5534 9.94106 16.5614 9.87967 16.6695 9.35077C16.7236 9.09992 16.8354 8.54873 16.888 8.35247C16.9874 8.30581 17.0838 8.2601 17.1803 8.2601C17.4015 8.2601 17.3746 8.45636 17.3658 8.53456C17.3578 8.66603 17.2766 9.09463 17.1919 9.46279L17.1393 9.70041C17.0991 9.87608 17.0553 10.0465 17.0166 10.2206L17.0335 10.2554C17.4857 10.231 17.6179 10.231 18.005 10.2376L18.0518 10.2023C18.1197 9.7941 18.138 9.68492 18.2652 9.09104L18.3258 8.8179C18.447 8.28371 18.5083 8.01303 18.4185 7.7924C18.3192 7.54514 18.0862 7.48545 17.8765 7.48545C17.7376 7.48545 17.4827 7.51926 17.2562 7.63222C17.1752 7.6751 17.0941 7.7244 17.0144 7.77389L17.0838 7.50245L17.0465 7.45655C16.5637 7.55553 16.4533 7.56875 16.0076 7.63222L15.9734 7.65734C15.9194 8.09123 15.8754 8.41726 15.6834 9.2703C15.6102 9.58462 15.5343 9.90196 15.4584 10.2155L15.4788 10.2554C15.9368 10.231 16.0735 10.231 16.4702 10.2376ZM19.7927 10.2553C19.8211 10.1151 19.99 9.28438 19.9915 9.28438C19.9915 9.28438 20.1353 8.67482 20.1441 8.65272C20.1441 8.65272 20.1893 8.58925 20.2346 8.56413H20.3012C20.9294 8.56413 21.6388 8.56413 22.1948 8.15102C22.5731 7.86768 22.8318 7.44928 22.9472 6.94078C22.9771 6.81611 22.9992 6.66783 22.9992 6.51955C22.9992 6.3248 22.9604 6.13212 22.8486 5.98158C22.5651 5.58093 22.0005 5.57357 21.3487 5.57055C21.3466 5.57055 21.0274 5.57357 21.0274 5.57357C20.1931 5.58396 19.8585 5.58093 19.721 5.56393C19.7095 5.62532 19.6876 5.7345 19.6876 5.7345C19.6876 5.7345 19.3887 7.13345 19.3887 7.13572C19.3887 7.13572 18.6735 10.11 18.6399 10.2502C19.3683 10.2413 19.667 10.2413 19.7927 10.2553ZM20.3464 7.77021C20.3464 7.77021 20.6642 6.3741 20.6627 6.37939L20.673 6.3078L20.6775 6.25321L20.8045 6.26643C20.8045 6.26643 21.4598 6.32328 21.4751 6.3248C21.7338 6.42585 21.8404 6.68634 21.7659 7.02635C21.698 7.33708 21.4985 7.59831 21.2421 7.7245C21.0309 7.83141 20.7723 7.84029 20.5058 7.84029H20.3334L20.3464 7.77021ZM22.3248 8.9737C22.2409 9.33524 22.1444 9.99562 22.7426 10.231C22.9334 10.313 23.1043 10.3373 23.2781 10.3284C23.4615 10.3184 23.6315 10.2255 23.789 10.0918C23.7748 10.1467 23.7606 10.2017 23.7464 10.2569L23.7735 10.2922C24.2038 10.2739 24.3374 10.2739 24.8036 10.2774L24.8459 10.245C24.914 9.84072 24.9781 9.4482 25.155 8.67487C25.2412 8.30445 25.3273 7.93762 25.4157 7.56871L25.4019 7.5281C24.9205 7.6182 24.7918 7.63747 24.3288 7.70377L24.2936 7.73267C24.2889 7.77026 24.2841 7.80634 24.2796 7.84242C24.2076 7.72493 24.1032 7.62463 23.9422 7.5621C23.7363 7.48031 23.2526 7.58572 22.8369 7.96804C22.5448 8.24099 22.4045 8.61499 22.3248 8.9737ZM23.3359 8.9958C23.4389 8.5502 23.5573 8.17317 23.864 8.17317C24.058 8.17317 24.1601 8.35394 24.1393 8.66222C24.1229 8.7391 24.1051 8.82013 24.084 8.91175C24.0533 9.04416 24.02 9.17544 23.9876 9.30691C23.9547 9.39682 23.9164 9.48164 23.8743 9.53812C23.7954 9.65107 23.6076 9.72115 23.4995 9.72115C23.4688 9.72115 23.2796 9.72115 23.273 9.43933C23.2715 9.29898 23.3001 9.15447 23.3359 8.9958ZM28.6156 7.5245L28.5784 7.48162C28.102 7.57909 28.0158 7.59457 27.5782 7.65426L27.546 7.68675C27.5445 7.69204 27.5432 7.70017 27.5409 7.70753L27.5394 7.70017C27.2137 8.45933 27.2232 8.29556 26.958 8.89322C26.9565 8.86602 26.9565 8.84901 26.955 8.82011L26.8886 7.5245L26.8469 7.48162C26.3479 7.57909 26.3362 7.59457 25.8753 7.65426L25.8394 7.68675C25.8344 7.70224 25.8344 7.71924 25.8314 7.73776L25.8344 7.74437C25.892 8.04168 25.8781 7.97538 25.9359 8.44459C25.9629 8.67485 25.9988 8.90644 26.0257 9.13387C26.0711 9.51449 26.0966 9.70187 26.1521 10.2827C25.8409 10.8014 25.7672 10.9977 25.4676 11.4529L25.4697 11.4574L25.2587 11.7944C25.2346 11.8299 25.2127 11.8543 25.182 11.8647C25.1484 11.8815 25.1046 11.8845 25.0438 11.8845H24.9269L24.7532 12.4682L25.3492 12.4786C25.6992 12.4771 25.9191 12.3118 26.0375 12.0897L26.4123 11.441H26.4063L26.4457 11.3953C26.6979 10.8471 28.6156 7.5245 28.6156 7.5245ZM22.3248 15.1903H22.072L23.0078 12.0639H23.3183L23.4168 11.7418L23.4264 12.1C23.4148 12.3213 23.5872 12.5176 24.0402 12.4851H24.564L24.7443 11.8831H24.5472C24.4338 11.8831 24.3813 11.8542 24.3878 11.7923L24.3783 11.4279H23.4082V11.4298C23.0946 11.4364 22.158 11.4602 21.9683 11.5112C21.7389 11.5709 21.4971 11.7465 21.4971 11.7465L21.5921 11.4241H20.6846L20.4956 12.0639L19.5472 15.238H19.3631L19.1827 15.8357H20.99L20.9294 16.035H21.82L21.8791 15.8357H22.129L22.3248 15.1903ZM21.5833 12.6991C21.438 12.7397 21.1675 12.8629 21.1675 12.8629L21.408 12.0639H22.129L21.9551 12.6461C21.9551 12.6461 21.7323 12.6593 21.5833 12.6991ZM21.5971 13.8406C21.5971 13.8406 21.3706 13.8693 21.2216 13.9033C21.0748 13.9483 20.7995 14.09 20.7995 14.09L21.0478 13.2584H21.7725L21.5971 13.8406ZM21.1931 15.1976H20.4699L20.6796 14.4959H21.4006L21.1931 15.1976ZM22.9348 13.2584H23.9773L23.8275 13.7484H22.7712L22.6126 14.2841H23.5368L22.837 15.2794C22.788 15.3525 22.744 15.3784 22.6952 15.399C22.6462 15.4241 22.5819 15.4536 22.5075 15.4536H22.2511L22.0749 16.0403H22.7455C23.0941 16.0403 23.3001 15.8801 23.4521 15.6699L23.932 15.0065L24.035 15.6801C24.0569 15.8062 24.1467 15.8801 24.2075 15.9088C24.2746 15.9428 24.344 16.0012 24.442 16.0099C24.5471 16.0144 24.623 16.018 24.6735 16.018H25.0031L25.2009 15.3614H25.071C24.9963 15.3614 24.8679 15.3487 24.846 15.3251C24.8241 15.2964 24.8241 15.2522 24.8123 15.185L24.7078 14.5099H24.2797L24.4674 14.2841H25.5217L25.6838 13.7484H24.7078L24.8598 13.2584H25.8329L26.0134 12.6542H23.1123L22.9348 13.2584ZM14.1302 15.3341L14.3735 14.5165H15.3735L15.5562 13.9085H14.5553L14.7081 13.4053H15.6862L15.8674 12.8165H13.4201L13.2426 13.4053H13.7986L13.6503 13.9085H13.0928L12.908 14.5269H13.4638L13.1395 15.6085C13.0958 15.7517 13.1601 15.8063 13.2009 15.8728C13.2426 15.9376 13.2848 15.9805 13.3798 16.0048C13.4778 16.0269 13.545 16.0401 13.6363 16.0401H14.7636L14.9645 15.3666L14.4648 15.4359C14.3683 15.4359 14.101 15.4242 14.1302 15.3341ZM14.2449 11.4204L13.9915 11.883C13.9372 11.9841 13.8884 12.0468 13.8445 12.0757C13.8058 12.1001 13.7291 12.1103 13.618 12.1103H13.4858L13.309 12.7021H13.7481C13.9593 12.7021 14.1214 12.6239 14.1989 12.5848C14.2821 12.5398 14.304 12.5655 14.3683 12.5028L14.5166 12.373H15.8879L16.0698 11.7568H15.0661L15.2413 11.4204H14.2449ZM16.2693 15.3459C16.2459 15.3119 16.2627 15.2521 16.2984 15.1274L16.6732 13.8745H18.0065C18.2008 13.8716 18.3411 13.8694 18.4324 13.8628C18.5304 13.8524 18.637 13.817 18.7531 13.7536C18.873 13.6871 18.9343 13.617 18.9861 13.5365C19.0439 13.4563 19.1367 13.2806 19.2164 13.0097L19.6875 11.4241L18.3039 11.4323C18.3039 11.4323 17.8778 11.4957 17.6903 11.5658C17.501 11.644 17.2306 11.8624 17.2306 11.8624L17.3555 11.4277H16.5008L15.3042 15.4359C15.2618 15.5915 15.2334 15.7045 15.2268 15.7723C15.2246 15.8454 15.3181 15.9177 15.3787 15.9723C15.4503 16.0269 15.5562 16.018 15.6577 16.0269C15.7645 16.035 15.9164 16.0401 16.126 16.0401H16.7828L16.9844 15.3526L16.3964 15.4087C16.3336 15.4087 16.2882 15.3747 16.2693 15.3459ZM16.9151 13.0282H18.3155L18.2264 13.31C18.2139 13.3167 18.184 13.2961 18.0415 13.3131H16.8288L16.9151 13.0282ZM17.1956 12.083H18.6078L18.5062 12.4224C18.5062 12.4224 17.8406 12.4158 17.734 12.4357C17.265 12.5176 16.991 12.7708 16.991 12.7708L17.1956 12.083ZM18.2578 14.2538C18.2462 14.2959 18.2279 14.3216 18.2022 14.3409C18.1738 14.3594 18.1278 14.366 18.0592 14.366H17.8596L17.8714 14.0228H17.0414L17.0077 15.7007C17.0064 15.8218 17.018 15.8919 17.1057 15.948C17.1935 16.0181 17.4637 16.027 17.8275 16.027H18.3476L18.5353 15.3989L18.0826 15.424L17.932 15.4329C17.9114 15.424 17.8918 15.4159 17.8699 15.3938C17.8508 15.3747 17.8187 15.3864 17.8239 15.2653L17.8275 14.8352L18.3023 14.8154C18.5587 14.8154 18.6683 14.7311 18.7618 14.6509C18.851 14.574 18.8802 14.4856 18.9139 14.366L18.9935 13.9852H18.341L18.2578 14.2538Z" fill="#FEFEFE"/>
</svg>
