<svg width="15" height="18" viewBox="0 0 15 18" fill="none" xmlns="http://www.w3.org/2000/svg">
<path d="M8.19067 17.0937C8.66775 17.0937 9.11466 16.8604 9.3873 16.4688L13.7955 10.1385C14.6233 8.94981 14.9922 7.50138 14.834 6.06149L14.495 2.9767C14.3502 1.65847 13.3153 0.614294 11.9984 0.457642L9.79318 0.195311C8.10916 -0.00501442 6.40168 0.168633 4.79247 0.703873C3.66608 1.07852 2.76388 1.93345 2.32921 3.03807L0.549405 7.56105C0.463316 7.77983 0.40382 8.00816 0.372196 8.24113C0.0968676 10.2694 1.92961 11.9498 3.92645 11.4998L7.98678 10.5849L6.77859 15.2715C6.54067 16.1944 7.23757 17.0938 8.19067 17.0937Z" fill="#FF4C34"/>
</svg>
