<svg width="15" height="18" viewBox="0 0 15 18" fill="none" xmlns="http://www.w3.org/2000/svg">
<path d="M6.80933 0.90625C6.33225 0.906258 5.88534 1.13964 5.6127 1.53116L1.20449 7.86146C0.376701 9.05019 0.00775316 10.4986 0.165979 11.9385L0.50496 15.0233C0.649817 16.3415 1.68468 17.3857 3.00156 17.5424L5.20682 17.8047C6.89084 18.005 8.59832 17.8314 10.2075 17.2961C11.3339 16.9215 12.2361 16.0665 12.6708 14.9619L14.4506 10.4389C14.5367 10.2202 14.5962 9.99184 14.6278 9.75887C14.9031 7.73057 13.0704 6.05023 11.0736 6.50018L7.01322 7.41509L8.22141 2.72849C8.45933 1.80557 7.76243 0.906234 6.80933 0.90625Z" fill="#53AF1B"/>
</svg>
