<svg width="35" height="27" viewBox="0 0 35 27" fill="none" xmlns="http://www.w3.org/2000/svg">
<path d="M22.1546 18.875H12.79V2.47226H22.1546V18.875Z" fill="#6C6BBD"/>
<path d="M13.3845 10.674C13.3845 7.34661 14.983 4.38268 17.4721 2.47261C15.6519 1.07586 13.3546 0.242195 10.858 0.242195C4.94742 0.242195 0.15625 4.9126 0.15625 10.674C0.15625 16.4354 4.94742 21.1058 10.858 21.1058C13.3546 21.1058 15.6519 20.2721 17.4721 18.8754C14.983 16.9653 13.3845 14.0014 13.3845 10.674Z" fill="#EB001B"/>
<path d="M34.7884 10.674C34.7884 16.4354 29.9973 21.1058 24.0867 21.1058C21.5901 21.1058 19.2928 20.2721 17.4719 18.8754C19.9617 16.9653 21.5601 14.0014 21.5601 10.674C21.5601 7.34661 19.9617 4.38268 17.4719 2.47261C19.2928 1.07586 21.5901 0.242195 24.0867 0.242195C29.9973 0.242195 34.7884 4.9126 34.7884 10.674Z" fill="#0099DF"/>
<path d="M25.323 23.5099C25.4476 23.5099 25.6265 23.5331 25.7633 23.5855L25.5728 24.1533C25.4421 24.1009 25.3115 24.0836 25.1863 24.0836C24.7821 24.0836 24.58 24.3383 24.58 24.7959V26.3492H23.9614V23.5796H24.5738V23.9158C24.7344 23.6724 24.9665 23.5099 25.323 23.5099Z" fill="white"/>
<path d="M23.0381 24.1301H22.0276V25.3816C22.0276 25.6595 22.1283 25.8452 22.4379 25.8452C22.5985 25.8452 22.8006 25.7928 22.9844 25.6887L23.1626 26.204C22.9667 26.3373 22.6577 26.4189 22.3903 26.4189C21.6588 26.4189 21.4036 26.0362 21.4036 25.3929V24.1301H20.8266V23.5796H21.4036V22.7393H22.0276V23.5796H23.0381V24.1301Z" fill="white"/>
<path fill-rule="evenodd" clip-rule="evenodd" d="M15.8919 23.51C16.6887 23.51 17.2358 24.1009 17.2419 24.9644C17.2419 25.0447 17.2359 25.1191 17.2298 25.194L17.2297 25.1959H15.1196C15.2087 25.694 15.5714 25.8737 15.9695 25.8737C16.2546 25.8737 16.5581 25.7696 16.7956 25.5839L17.099 26.0302C16.754 26.3141 16.3621 26.4182 15.9341 26.4182C15.0835 26.4182 14.4772 25.8445 14.4772 24.9644C14.4772 24.1009 15.0597 23.51 15.8919 23.51ZM15.8803 24.0485C15.44 24.0485 15.191 24.3211 15.125 24.721H16.5996C16.5342 24.2919 16.2784 24.0485 15.8803 24.0485Z" fill="white"/>
<path d="M19.9583 24.2866C19.7861 24.1818 19.4357 24.0485 19.073 24.0485C18.7341 24.0485 18.532 24.1706 18.532 24.3735C18.532 24.5585 18.7457 24.6109 19.0131 24.6454L19.3043 24.6859C19.9229 24.7734 20.2971 25.0281 20.2971 25.5149C20.2971 26.0422 19.8215 26.4189 19.0015 26.4189C18.5375 26.4189 18.1094 26.3028 17.7706 26.0594L18.0618 25.5898C18.27 25.7464 18.5796 25.8797 19.0077 25.8797C19.4295 25.8797 19.6555 25.7583 19.6555 25.5434C19.6555 25.3876 19.4949 25.3 19.156 25.2543L18.8648 25.2138C18.2285 25.1263 17.8835 24.8484 17.8835 24.3967C17.8835 23.8462 18.3476 23.51 19.0669 23.51C19.5187 23.51 19.929 23.6088 20.2257 23.7998L19.9583 24.2866Z" fill="white"/>
<path fill-rule="evenodd" clip-rule="evenodd" d="M28.1952 23.6221C28.0074 23.5471 27.8033 23.51 27.5828 23.51C27.3623 23.51 27.1582 23.5471 26.9704 23.6221C26.7826 23.6963 26.6213 23.7991 26.4852 23.9298C26.3491 24.0605 26.2423 24.215 26.1647 24.3927C26.0871 24.5711 26.0483 24.7648 26.0483 24.9737C26.0483 25.1826 26.0871 25.3763 26.1647 25.5547C26.2423 25.7324 26.3491 25.8876 26.4852 26.0183C26.6213 26.1489 26.7826 26.2511 26.9704 26.326C27.1582 26.4003 27.3623 26.4374 27.5828 26.4374C27.8033 26.4374 28.0074 26.4003 28.1952 26.326C28.383 26.2511 28.5457 26.1489 28.6824 26.0183C28.8199 25.8876 28.9267 25.7324 29.0043 25.5547C29.0819 25.3763 29.1206 25.1826 29.1206 24.9737C29.1206 24.7648 29.0819 24.5711 29.0043 24.3927C28.9267 24.215 28.8199 24.0605 28.6824 23.9298C28.5457 23.7991 28.383 23.6963 28.1952 23.6221ZM27.2282 24.1473C27.3378 24.1042 27.4555 24.0823 27.5827 24.0823C27.71 24.0823 27.8284 24.1042 27.9373 24.1473C28.0468 24.1911 28.1421 24.2521 28.2217 24.3304C28.3027 24.4086 28.3653 24.5028 28.4115 24.6122C28.4571 24.7217 28.4796 24.8424 28.4796 24.9737C28.4796 25.1057 28.4571 25.2257 28.4115 25.3351C28.3653 25.4446 28.3027 25.5388 28.2217 25.617C28.1421 25.6953 28.0468 25.7563 27.9373 25.8001C27.8284 25.8438 27.71 25.8651 27.5827 25.8651C27.4555 25.8651 27.3378 25.8438 27.2282 25.8001C27.1193 25.7563 27.0248 25.6953 26.9451 25.617C26.8655 25.5388 26.8029 25.4446 26.7573 25.3351C26.7117 25.2257 26.6893 25.1057 26.6893 24.9737C26.6893 24.8424 26.7117 24.7217 26.7573 24.6122C26.8029 24.5028 26.8655 24.4086 26.9451 24.3304C27.0248 24.2521 27.1193 24.1911 27.2282 24.1473Z" fill="white"/>
<path fill-rule="evenodd" clip-rule="evenodd" d="M13.8137 23.5796V24.9644V26.3492H13.1958V26.013C12.9992 26.2623 12.7025 26.4189 12.2983 26.4189C11.5015 26.4189 10.8775 25.81 10.8775 24.9644C10.8775 24.1182 11.5015 23.51 12.2983 23.51C12.7025 23.51 12.9992 23.6665 13.1958 23.9159V23.5796H13.8137ZM12.3752 24.0777C11.8403 24.0777 11.513 24.4776 11.513 24.9644C11.513 25.4512 11.8403 25.8505 12.3752 25.8505C12.8862 25.8505 13.2312 25.4684 13.2312 24.9644C13.2312 24.4604 12.8862 24.0777 12.3752 24.0777Z" fill="white"/>
<path d="M10.3305 26.3492V24.6109C10.3305 23.9563 9.9025 23.5159 9.21319 23.5099C8.8505 23.504 8.47556 23.6141 8.21426 24.0027C8.01829 23.6956 7.70867 23.5099 7.27454 23.5099C6.97173 23.5099 6.67437 23.5968 6.44233 23.9211V23.5796H5.82446V26.3492H6.44845V24.8138C6.44845 24.333 6.722 24.0777 7.14389 24.0777C7.55421 24.0777 7.76243 24.3383 7.76243 24.8079V26.3492H8.38642V24.8138C8.38642 24.333 8.67222 24.0777 9.08186 24.0777C9.50443 24.0777 9.70652 24.3383 9.70652 24.8079V26.3492H10.3305V26.3492Z" fill="white"/>
</svg>
