<svg width="130" height="40" viewBox="0 0 130 40" fill="none" xmlns="http://www.w3.org/2000/svg">
<g clip-path="url(#clip0_1_8529)">
<path fill-rule="evenodd" clip-rule="evenodd" d="M23.754 18.541L25.1547 13.5883H31.6527C35.0755 13.5883 37.1633 12.0259 38.1086 8.68861L38.6351 6.86056C39.841 2.62253 37.8742 0 33.5431 0H5.24997L0 18.541H23.754ZM33.5168 5.00593L32.4136 9.0048H26.4527L27.5849 5.0192L33.5168 5.00593ZM41.0494 18.541L42.7898 15.4429H50.8385V18.541H56.1412V0H45.7465L34.9069 18.541H41.0494ZM48.6403 5.03247H50.8385V10.9392H45.3095L48.6403 5.03247ZM78.1969 6.86056L77.715 8.52918H77.7047C77.0146 10.987 75.7062 12.4696 73.7208 13.0888L75.3797 18.541H69.7191L68.176 13.4288H64.7532L63.3053 18.541H57.7949L63.042 0H73.0944C77.4254 0 79.3951 2.56939 78.1969 6.86056ZM73.0708 5.00593H67.1389L66.0042 9.0048H71.9701L73.0708 5.00593ZM82.8863 18.541L88.1334 0H82.623L77.3726 18.541H82.8863ZM42.9426 28.6033L49.1588 21.1901H56.2966L51.0495 39.7311H45.536L48.564 29.1294L43.4376 35.2008H39.8937L37.9638 29.4695L35.065 39.7311H11.3109L16.561 21.1901H40.3939L42.9426 28.6033ZM63.6553 21.1901L52.8158 39.7311H58.9583L60.6987 36.6303H68.7474V39.7311H74.0472V21.1901H63.6553ZM63.229 32.1292L66.5487 26.2225H68.7474V32.1292H63.229ZM94.1525 21.1901L92.657 26.4883H87.4834L83.7341 39.7311H78.2233L81.9725 26.4883H75.9379L77.4334 21.1901H94.1525ZM99.979 26.4883H108.325L109.85 21.1901H100.951C97.5278 21.1901 95.4398 22.7524 94.4949 26.0897L92.5515 32.8705C91.3194 37.2149 93.3127 39.7311 97.6437 39.7311H104.573L106.069 34.4329H97.7228L99.979 26.4883ZM122.198 27.8115L124.076 21.1901H129.586L124.336 39.7311H118.825L120.7 33.1097H114.4L112.525 39.7311H107.014L112.264 21.1901H117.775L115.9 27.8115H122.198Z" fill="#F8FF13"/>
</g>
<defs>
<clipPath id="clip0_1_8529">
<rect width="130" height="40" fill="white"/>
</clipPath>
</defs>
</svg>
