<svg width="329" height="89" viewBox="0 0 329 89" fill="none" xmlns="http://www.w3.org/2000/svg">
<g clip-path="url(#clip0_1_8446)">
<path d="M73.5116 -9.73043L78.0797 -13.6554C79.7974 -15.1313 79.9934 -17.7202 78.5175 -19.4379L74.175 -24.492C70.3008 -29.001 63.5049 -29.5156 58.9959 -25.6414L44.2329 -12.9569C41.8614 -10.9192 40.3965 -8.02295 40.1604 -4.9052L39.5748 2.82782C39.4066 5.04935 37.4693 6.71389 35.2478 6.54567C31.6642 6.2743 29.5414 10.4712 31.8835 13.197L52.7136 37.4402C55.3226 40.4767 59.8992 40.8232 62.9357 38.2142C64.3939 36.9613 65.2947 35.1805 65.4398 33.2634L65.5689 31.5591C65.7967 28.5509 67.2102 25.7563 69.4984 23.7902L71.0759 22.4348C75.8533 18.33 76.3985 11.1296 72.2937 6.35219C68.1889 1.5748 68.7342 -5.62563 73.5116 -9.73043Z" stroke="url(#paint0_linear_1_8446)"/>
<path d="M247.901 13.1916L251.376 10.2062C252.682 9.0836 252.831 7.11444 251.709 5.80792L248.406 1.96374C245.459 -1.46586 240.29 -1.85728 236.86 1.08948L225.632 10.7375C223.828 12.2874 222.714 14.4903 222.534 16.8617L222.089 22.7435C221.961 24.4332 220.487 25.6993 218.797 25.5714C216.072 25.365 214.457 28.5571 216.238 30.6305L232.082 49.0701C234.067 51.3797 237.548 51.6433 239.857 49.6588C240.966 48.7059 241.651 47.3513 241.762 45.8932L241.86 44.5969C242.033 42.3088 243.108 40.1832 244.849 38.6878L246.049 37.6568C249.682 34.5347 250.097 29.0579 246.975 25.4242C243.853 21.7905 244.268 16.3137 247.901 13.1916Z" stroke="url(#paint1_linear_1_8446)"/>
<path d="M185.717 -1.67832L191.234 3.83794C193.308 5.91219 196.671 5.91219 198.745 3.83794L204.848 -2.26516C210.293 -7.71006 210.293 -16.538 204.848 -21.9829L186.942 -39.8893C184.129 -42.7023 180.313 -44.2827 176.335 -44.2827L166.178 -44.2827C163.292 -44.2827 160.953 -46.6221 160.953 -49.5079C160.953 -54.163 155.325 -56.4943 152.033 -53.2026L122.758 -23.9275C119.091 -20.2607 119.091 -14.3157 122.758 -10.6489C124.519 -8.88803 126.907 -7.89879 129.397 -7.89879H131.611C135.519 -7.89879 139.266 -6.34644 142.03 -3.58325L143.934 -1.67833C149.703 4.09067 159.057 4.09068 164.826 -1.67833C170.595 -7.44733 179.948 -7.44732 185.717 -1.67832Z" stroke="url(#paint2_linear_1_8446)"/>
<path d="M43.2195 69.7542L44.9029 71.4376C48.2253 74.76 53.8697 71.9822 53.2639 67.3228C52.8303 63.9873 55.7956 61.2092 59.0958 61.8592L61.0351 62.2412C66.8989 63.3961 70.9604 56.5424 67.1317 51.9534L62.3921 46.2728C61.275 44.9338 60.5726 43.2981 60.371 41.5661L58.9048 28.9683C58.0246 21.406 51.6187 15.7025 44.0053 15.7025L31.0607 15.7025C27.0824 15.7025 23.2671 17.2829 20.4541 20.0959L-13.3476 53.8976C-17.0144 57.5643 -17.0144 63.5094 -13.3476 67.1762C-11.5867 68.937 -9.19849 69.9262 -6.70827 69.9262H-4.49438C-0.586626 69.9262 3.16107 71.4786 5.92427 74.2418L7.82919 76.1467C13.5982 81.9157 22.9516 81.9157 28.7206 76.1467L35.1131 69.7542C37.3516 67.5157 40.981 67.5157 43.2195 69.7542Z" stroke="url(#paint3_linear_1_8446)"/>
<path d="M164.716 73.3646L166.399 75.048C169.721 78.3704 175.366 75.5925 174.76 70.9332C174.326 67.5977 177.292 64.8196 180.592 65.4696L182.531 65.8515C188.395 67.0064 192.457 60.1528 188.628 55.5638L183.888 49.8831C182.771 48.5442 182.069 46.9085 181.867 45.1764L180.401 32.5787C179.521 25.0164 173.115 19.3129 165.501 19.3129L152.557 19.3129C148.579 19.3129 144.763 20.8932 141.95 23.7063L108.149 57.5079C104.482 61.1747 104.482 67.1197 108.149 70.7865C109.909 72.5474 112.298 73.5366 114.788 73.5366H117.002C120.909 73.5366 124.657 75.0889 127.42 77.8521L129.325 79.7571C135.094 85.5261 144.448 85.5261 150.217 79.7571L156.609 73.3646C158.848 71.126 162.477 71.126 164.716 73.3646Z" stroke="url(#paint4_linear_1_8446)"/>
<path d="M263.592 27.4032L256.408 39.8392C254.549 43.0565 254.433 46.9929 256.099 50.3139L259.028 56.1521C260.973 60.0268 258.544 64.6666 254.252 65.277C248.335 66.1185 246.758 73.9277 251.885 76.999L258.232 80.801C259.728 81.6971 260.93 83.01 261.691 84.5789L267.226 95.9902C270.548 102.84 278.476 106.115 285.664 103.606L297.886 99.3416C301.642 98.0309 304.723 95.2817 306.453 91.6989L327.23 48.6479C329.484 43.9778 327.526 38.3647 322.855 36.1107C320.613 35.0283 318.032 34.8812 315.681 35.7016L313.59 36.431C309.901 37.7185 305.851 37.4876 302.332 35.7891L289.265 29.4827C287.512 28.6368 285.975 27.4031 284.77 25.8751C279.154 18.7568 268.127 19.5524 263.592 27.4032Z" stroke="url(#paint5_linear_1_8446)"/>
<g clip-path="url(#clip1_1_8446)">
<path d="M107.846 -13.2695C107.704 -13.9298 107.163 -14.4645 106.5 -14.5994C104.57 -14.9877 102.624 -14.9447 100.761 -14.5482C100.732 -14.5413 100.703 -14.5401 100.675 -14.5285C98.0752 -13.9577 95.6473 -12.6789 93.7029 -10.7328C91.7584 -8.7879 90.4788 -6.35822 89.9081 -3.7588C89.8965 -3.7309 89.8942 -3.70067 89.8872 -3.67161C89.4909 -1.80807 89.4479 0.138004 89.8361 2.06664C89.9697 2.73045 90.5044 3.27102 91.1668 3.41169C92.1513 3.62211 93.1403 3.72557 94.1213 3.72557C97.8044 3.72557 101.365 2.2759 104.037 -0.395597C105.982 -2.34051 107.255 -4.76439 107.816 -7.35683C107.853 -7.43704 107.874 -7.52075 107.874 -7.60794C108.238 -9.44938 108.252 -11.3676 107.846 -13.2695ZM91.4086 2.27473C91.1971 2.2294 91.0192 2.05037 90.9762 1.83762C90.6961 0.4484 90.6717 -0.948962 90.8391 -2.31261L95.6054 2.45493C94.2247 2.61536 92.8114 2.57583 91.4086 2.27473ZM103.216 -1.21751C101.476 0.522802 99.3165 1.67603 97.0048 2.2108L91.089 -3.70648C91.6341 -6.01876 92.7893 -8.17525 94.5246 -9.91091C96.2598 -11.6454 98.4111 -12.8103 100.718 -13.3555L106.641 -7.43123C106.106 -5.11779 104.956 -2.95898 103.216 -1.21751ZM106.885 -8.83092L102.109 -13.6078C102.635 -13.6729 103.163 -13.717 103.696 -13.717C104.55 -13.717 105.412 -13.6322 106.269 -13.4601C106.483 -13.4171 106.663 -13.2392 106.708 -13.0265C107.007 -11.6233 107.047 -10.2108 106.885 -8.83092Z" fill="url(#paint6_linear_1_8446)"/>
</g>
<g clip-path="url(#clip2_1_8446)">
<path d="M243.162 86.0633C243.162 84.0539 242.38 82.165 240.959 80.7443C239.538 79.3236 237.65 78.5413 235.64 78.5415C233.631 78.5418 231.742 79.3246 230.321 80.7457C228.9 82.1667 228.117 84.0558 228.117 86.0651C228.116 88.0745 228.899 89.9634 230.319 91.3841C231.74 92.8048 233.629 93.5871 235.638 93.5869C237.648 93.5866 239.537 92.8038 240.958 91.3827C242.379 89.9617 243.162 88.0726 243.162 86.0633ZM240.624 90.3542C239.917 89.1953 239.512 87.8968 239.436 86.5338L242.198 86.5335C242.099 87.951 241.552 89.2783 240.624 90.3542ZM242.199 85.5933L239.437 85.5936C239.513 84.2306 239.918 82.932 240.625 81.773C241.553 82.8487 242.1 84.1751 242.199 85.5933ZM239.941 81.0895C239.07 82.4421 238.578 83.9807 238.496 85.5938L236.109 85.5941L236.11 79.5049C237.533 79.6044 238.864 80.1548 239.941 81.0895ZM235.17 79.505L235.169 85.5942L232.782 85.5945C232.701 83.9814 232.21 82.4436 231.339 81.0906C232.415 80.1563 233.747 79.6049 235.17 79.505ZM230.655 81.7742C231.361 82.9324 231.766 84.2309 231.842 85.5946L229.08 85.5949C229.18 84.1774 229.727 82.8501 230.655 81.7742ZM229.08 86.5351L231.842 86.5348C231.766 87.8978 231.361 89.1964 230.654 90.3554C229.726 89.2797 229.179 87.9533 229.08 86.5351ZM231.337 91.0389C232.209 89.6863 232.701 88.1477 232.782 86.5346L235.169 86.5343L235.168 92.6235C233.746 92.5239 232.414 91.9736 231.337 91.0389ZM236.109 92.6234L236.109 86.5342L238.496 86.5339C238.577 88.147 239.068 89.6848 239.94 91.0378C238.863 91.9721 237.531 92.5235 236.109 92.6234Z" fill="url(#paint7_linear_1_8446)"/>
</g>
<path d="M255.152 -4.98084C254.912 -4.08718 254.844 -3.18895 254.912 -2.315C254.912 -2.30994 254.912 -2.30557 254.913 -2.30121C255.038 -0.719217 255.634 0.774553 256.596 2.00055C256.598 2.00202 256.599 2.00446 256.601 2.00716C257.628 3.31226 259.062 4.315 260.786 4.7769C265.029 5.91386 269.406 3.38647 270.543 -0.856737C271.68 -5.09995 269.153 -9.47751 264.91 -10.6145C260.666 -11.7514 256.289 -9.22405 255.152 -4.98084ZM261.378 -9.72668C262.174 -9.90003 263.008 -9.93624 263.849 -9.81411L262.536 -9.1308L261.378 -9.72668ZM260.043 -9.29353L262.093 -8.2379L262.428 -6.53063L259.661 -4.29647L257.784 -4.79935L257.25 -7.06318C257.977 -8.04383 258.943 -8.80883 260.043 -9.29353ZM262.998 -5.7108L265.677 -3.85875L264.828 -0.691011L261.587 -0.441878L260.372 -3.59143L262.998 -5.7108ZM256.114 -4.72309C256.217 -5.10883 256.357 -5.47343 256.518 -5.82511L256.821 -4.54403L255.915 -3.58644C255.953 -3.96411 256.012 -4.34407 256.114 -4.72309ZM255.926 -2.14648L257.524 -3.83913L259.403 -3.33547L260.683 -0.0181508L259.535 1.30039L257.22 1.1851C256.513 0.214154 256.062 -0.933411 255.926 -2.14648ZM258.156 2.22874L259.473 2.29415L260.273 3.55484C259.475 3.23897 258.763 2.78444 258.156 2.22874ZM265.164 3.65186C264.081 4.03515 262.897 4.15607 261.706 3.9575L260.374 1.85489L261.498 0.564228L264.975 0.296838L265.855 1.54416L265.164 3.65186ZM266.403 3.07046L266.771 1.94825L267.889 1.89314C267.448 2.35341 266.946 2.74695 266.403 3.07046ZM269.811 -2.89127C269.809 -2.30403 269.74 -1.70802 269.581 -1.11449C269.389 -0.39687 269.089 0.262887 268.706 0.856277L266.659 0.956405L265.759 -0.317819L266.67 -3.71739L268.047 -4.36412L269.811 -2.89127ZM269.671 -4.30514L268.637 -5.1678L268.735 -6.63034C269.182 -5.9208 269.502 -5.13418 269.671 -4.30514ZM267.647 -5.27651L266.296 -4.64142L263.424 -6.62547L263.096 -8.29809L265.297 -9.44357C266.273 -9.07905 267.121 -8.50626 267.816 -7.79643L267.647 -5.27651Z" fill="url(#paint8_linear_1_8446)"/>
<g clip-path="url(#clip3_1_8446)">
<path d="M85.6861 46.137L85.6837 46.1363C85.6533 46.1263 85.619 46.1433 85.6088 46.1749L85.133 46.0214L85.6092 46.1738C85.5754 46.2793 85.5283 46.3931 85.4926 46.4792C85.481 46.5074 85.4705 46.5327 85.4621 46.5537L85.3369 46.869L84.9976 46.8691L73.5456 46.8713L73.206 46.8714L73.0807 46.5557C72.7839 45.8075 72.6013 44.9963 72.6023 44.1452L72.6023 44.1437C72.611 42.0266 73.5934 39.756 75.1596 38.1899C75.986 37.3634 77.3955 36.3225 79.2687 36.3219C80.946 36.3141 82.5533 37.1858 83.8149 38.6755L83.8201 38.6816L83.825 38.6878C83.8291 38.693 83.8325 38.6953 83.8354 38.6968C83.8388 38.6986 83.8439 38.7003 83.8508 38.7008C83.8653 38.702 83.8827 38.6975 83.8979 38.6845L83.8993 38.6833C83.9253 38.6613 83.9277 38.6234 83.907 38.599L83.9064 38.5983C82.5763 37.0193 80.9213 36.1938 79.2693 36.2019L79.2672 36.2019C77.8107 36.2028 76.3184 36.8613 75.0747 38.105C73.483 39.6968 72.4918 42.0211 72.4831 44.1446C72.4832 45.0991 72.7041 46.0209 73.0853 46.871L73.0997 46.9032L73.1095 46.9372C73.1131 46.9498 73.1155 46.9562 73.1165 46.9586L73.1254 46.9741L73.1342 46.9926C73.8854 48.5825 75.2389 49.8628 76.966 50.4803C77.6224 50.7077 78.0894 51.3152 78.0881 52.0149V52.0149L78.0805 56.1739L78.0805 56.1739C78.0799 56.4871 78.2019 56.7828 78.4281 57.009C78.6543 57.2351 78.95 57.3572 79.2632 57.3566L79.2641 57.3566C79.9161 57.3565 80.4485 56.8242 80.4482 56.1716C80.4482 56.1715 80.4482 56.1714 80.4482 56.1713L80.4432 52.016C80.4421 51.314 80.9122 50.7092 81.5685 50.4792C83.5358 49.7739 85.0894 48.177 85.724 46.2122L85.6861 46.137ZM85.6861 46.137C85.6992 46.1412 85.7114 46.1507 85.7196 46.1667M85.6861 46.137L85.7196 46.1667M85.7196 46.1667C85.7276 46.1822 85.7286 46.1977 85.724 46.2121L85.7196 46.1667ZM79.2638 57.2375H79.2651C79.8485 57.2374 80.3283 56.754 80.3298 56.1725L80.3298 56.1703L80.3232 52.0138C80.3232 52.0137 80.3232 52.0135 80.3232 52.0134C80.3235 51.2871 80.799 50.6187 81.5276 50.3636L81.5308 50.3625C82.8965 49.8739 84.0481 48.9433 84.831 47.764L85.3466 46.9874L84.4144 46.9875L74.1243 46.9888L73.1946 46.9889L73.7072 47.7645C74.4803 48.934 75.6164 49.8695 77.0052 50.3655L77.0052 50.3655L77.008 50.3665C77.735 50.6212 78.2095 51.2887 78.2088 52.014C78.2088 52.0141 78.2088 52.0141 78.2088 52.0142L78.2012 56.1727L78.2012 56.1736C78.2011 56.7483 78.6908 57.236 79.2638 57.2375Z" stroke="url(#paint9_linear_1_8446)"/>
<path d="M83.9763 41.0823C84.6548 40.4039 85.7593 40.4039 86.4377 41.0823C87.1162 41.7608 87.1162 42.8653 86.4377 43.5438C85.7593 44.2222 84.6548 44.2222 83.9763 43.5438C83.2979 42.8653 83.2979 41.7608 83.9763 41.0823ZM84.0613 41.1674C83.4299 41.7989 83.4286 42.826 84.0613 43.4587C84.6941 44.0915 85.7212 44.0902 86.3527 43.4587C86.9842 42.8272 86.9855 41.8001 86.3527 41.1674C85.72 40.5346 84.6928 40.5359 84.0613 41.1674Z" stroke="url(#paint10_linear_1_8446)"/>
</g>
<path fill-rule="evenodd" clip-rule="evenodd" d="M124.686 42.7074L126.024 37.9773H132.23C135.498 37.9773 137.492 36.4852 138.395 33.298L138.898 31.5521C140.05 27.5046 138.171 25 134.035 25H107.014L102 42.7074H124.686ZM134.01 29.7809L132.956 33.5999H127.263L128.345 29.7935L134.01 29.7809ZM141.204 42.7074L142.866 39.7486H150.553V42.7074H155.617V25H145.69L135.337 42.7074H141.204ZM148.453 29.8062H150.553V35.4473H145.272L148.453 29.8062ZM176.681 31.5521L176.221 33.1457H176.211C175.552 35.493 174.302 36.909 172.406 37.5003L173.991 42.7074H168.584L167.111 37.8251H163.842L162.459 42.7074H157.196L162.207 25H171.808C175.944 25 177.825 27.4539 176.681 31.5521ZM171.785 29.7809H166.12L165.037 33.5999H170.734L171.785 29.7809ZM181.16 42.7074L186.171 25H180.908L175.894 42.7074H181.16ZM143.012 52.3172L148.949 45.2373H155.765L150.754 62.9447H145.489L148.38 52.8196L143.485 58.6181H140.1L138.257 53.1445L135.488 62.9447H112.802L117.816 45.2373H140.578L143.012 52.3172ZM162.793 45.2373L152.441 62.9447H158.307L159.97 59.9833H167.656V62.9447H172.718V45.2373H162.793ZM162.386 55.6846L165.557 50.0435H167.656V55.6846H162.386ZM191.919 45.2373L190.491 50.2973H185.55L181.969 62.9447H176.706L180.287 50.2973H174.524L175.952 45.2373H191.919ZM197.484 50.2973H205.455L206.911 45.2373H198.412C195.143 45.2373 193.149 46.7294 192.246 49.9166L190.39 56.3926C189.213 60.5416 191.117 62.9447 195.253 62.9447H201.871L203.3 57.8847H195.329L197.484 50.2973ZM218.704 51.561L220.497 45.2373H225.76L220.746 62.9447H215.483L217.273 56.621H211.256L209.466 62.9447H204.202L209.217 45.2373H214.479L212.689 51.561H218.704Z" fill="white"/>
<path fill-rule="evenodd" clip-rule="evenodd" d="M243.724 -4.74543C244.771 -6.55896 247.09 -7.18031 248.903 -6.13328C249.919 -5.5469 250.56 -4.5616 250.745 -3.48957C251.765 -3.86609 252.939 -3.80299 253.955 -3.21661C255.768 -2.16958 256.39 0.149367 255.343 1.96289C254.903 2.72497 254.238 3.27653 253.481 3.58223L254.429 4.12945C255.824 4.93486 256.302 6.71866 255.496 8.11368L254.767 9.37663C254.525 9.79514 253.99 9.93853 253.572 9.6969L246.802 5.78858C246.635 5.69193 246.578 5.47787 246.674 5.31047L248.693 1.8137C248.513 1.46562 248.388 1.09192 248.322 0.707033C247.955 0.842213 247.569 0.920726 247.178 0.938701L245.159 4.43547C245.062 4.60287 244.848 4.66023 244.681 4.56358L237.911 0.65525C237.493 0.413626 237.349 -0.121515 237.591 -0.54002L238.32 -1.80297C239.126 -3.19799 240.909 -3.67596 242.304 -2.87054L243.252 -2.32333C243.138 -3.13202 243.284 -3.98335 243.724 -4.74543ZM248.775 -1.82877C249.339 -2.80528 249.005 -4.05394 248.028 -4.61773C247.052 -5.18152 245.803 -4.84695 245.239 -3.87043C244.675 -2.89392 245.01 -1.64526 245.986 -1.08147C246.963 -0.51768 248.212 -0.852258 248.775 -1.82877ZM250.291 -0.953772C249.727 0.022741 250.062 1.2714 251.038 1.83519C252.015 2.39898 253.263 2.0644 253.827 1.08789C254.391 0.11138 254.056 -1.13728 253.08 -1.70107C252.103 -2.26486 250.855 -1.93028 250.291 -0.953772Z" fill="#F7F8FD"/>
<path d="M244.021 6.40568C244.118 6.23828 244.061 6.02422 243.893 5.92757L238.537 2.83533C238.127 2.5987 237.607 2.69182 237.304 3.05582C236.324 4.23553 235.552 5.57339 235.02 7.01216L234.483 8.46559C234.121 9.44423 234.451 10.544 235.291 11.1628L236.298 11.9044C237.263 12.6152 238.256 13.2852 239.275 13.9128C239.442 14.0156 239.66 13.9593 239.758 13.7895L244.021 6.40568Z" fill="#F7F8FD"/>
<path d="M241.409 15.1448C241.236 15.0516 241.176 14.8343 241.274 14.6645L245.537 7.28068C245.633 7.11328 245.847 7.05592 246.015 7.15257L251.371 10.2448C251.781 10.4814 251.96 10.979 251.796 11.4229C251.265 12.8617 250.492 14.1995 249.512 15.3792L248.522 16.571C247.855 17.3734 246.738 17.638 245.782 17.22L244.637 16.7189C243.539 16.2387 242.462 15.7135 241.409 15.1448Z" fill="#F7F8FD"/>
<path fill-rule="evenodd" clip-rule="evenodd" d="M243.551 43.3178C242.775 42.8693 242.508 41.8759 242.957 41.0991C243.208 40.6641 243.63 40.3892 244.089 40.3103C243.928 39.8732 243.955 39.3702 244.206 38.9352C244.655 38.1583 245.648 37.8922 246.425 38.3407C246.751 38.5291 246.988 38.8138 247.119 39.1382L247.353 38.7322C247.698 38.1347 248.462 37.9299 249.06 38.2749L249.601 38.5873C249.78 38.6908 249.841 38.92 249.738 39.0993L248.064 41.999C248.022 42.0707 247.931 42.0952 247.859 42.0538L246.361 41.1891C246.212 41.2662 246.052 41.3198 245.887 41.3482C245.945 41.5051 245.979 41.6705 245.986 41.8382L247.484 42.703C247.556 42.7444 247.58 42.8361 247.539 42.9078L245.865 45.8075C245.761 45.9868 245.532 46.0482 245.353 45.9447L244.812 45.6324C244.214 45.2874 244.01 44.5233 244.355 43.9257L244.589 43.5197C244.243 43.5685 243.878 43.5062 243.551 43.3178ZM244.801 41.1538C244.383 40.9123 243.848 41.0556 243.606 41.4739C243.365 41.8922 243.508 42.4271 243.926 42.6686C244.345 42.9101 244.879 42.7668 245.121 42.3485C245.362 41.9302 245.219 41.3953 244.801 41.1538ZM245.176 40.5046C245.594 40.7461 246.129 40.6028 246.37 40.1845C246.612 39.7662 246.468 39.2314 246.05 38.9899C245.632 38.7484 245.097 38.8917 244.856 39.31C244.614 39.7283 244.757 40.2631 245.176 40.5046Z" fill="#F7F8FD"/>
<path d="M248.328 43.1903C248.256 43.1489 248.165 43.1734 248.123 43.2451L246.799 45.5394C246.697 45.7149 246.737 45.938 246.893 46.0675C247.398 46.4874 247.972 46.8183 248.588 47.046L249.21 47.276C249.63 47.4309 250.101 47.2898 250.366 46.93L250.683 46.4987C250.988 46.0854 251.275 45.6599 251.544 45.2234C251.588 45.1519 251.564 45.0584 251.491 45.0164L248.328 43.1903Z" fill="#F7F8FD"/>
<path d="M252.072 44.3094C252.032 44.3833 251.939 44.4092 251.866 44.3672L248.703 42.5411C248.631 42.4997 248.607 42.408 248.648 42.3363L249.973 40.0421C250.074 39.8665 250.287 39.7895 250.477 39.8598C251.094 40.0875 251.667 40.4183 252.172 40.8382L252.682 41.2624C253.026 41.548 253.139 42.0265 252.96 42.436L252.746 42.9267C252.54 43.397 252.315 43.8583 252.072 44.3094Z" fill="#F7F8FD"/>
<path fill-rule="evenodd" clip-rule="evenodd" d="M63.1205 11.1931C63.7548 10.5589 64.7831 10.5589 65.4174 11.1931C65.7726 11.5484 65.9289 12.0272 65.8863 12.4912C66.3502 12.4485 66.8291 12.6048 67.1843 12.96C67.8185 13.5943 67.8185 14.6226 67.1843 15.2569C66.9177 15.5235 66.5816 15.678 66.2344 15.7205L66.5659 16.052C67.0538 16.5399 67.0538 17.331 66.5659 17.8189L66.1242 18.2606C65.9778 18.407 65.7405 18.407 65.5941 18.2606L63.2265 15.893C63.168 15.8344 63.168 15.7395 63.2265 15.681L64.4495 14.458C64.4135 14.294 64.4032 14.1255 64.4185 13.9589C64.2519 13.9742 64.0834 13.9639 63.9194 13.9279L62.6964 15.1509C62.6379 15.2095 62.543 15.2095 62.4844 15.1509L60.1168 12.7833C59.9705 12.6369 59.9705 12.3996 60.1168 12.2533L60.5585 11.8115C61.0465 11.3236 61.8375 11.3236 62.3254 11.8115L62.6569 12.143C62.6994 11.7958 62.854 11.4597 63.1205 11.1931ZM64.8874 12.96C65.2289 12.6185 65.2289 12.0647 64.8874 11.7232C64.5458 11.3817 63.9921 11.3817 63.6506 11.7232C63.309 12.0647 63.309 12.6185 63.6506 12.96C63.9921 13.3015 64.5458 13.3015 64.8874 12.96ZM65.4174 13.4901C65.0759 13.8316 65.0759 14.3853 65.4174 14.7269C65.7589 15.0684 66.3127 15.0684 66.6542 14.7269C66.9957 14.3853 66.9957 13.8316 66.6542 13.4901C66.3127 13.1485 65.7589 13.1485 65.4174 13.4901Z" fill="#F7F8FD"/>
<path d="M62.0074 15.84C62.0659 15.7814 62.0659 15.6865 62.0074 15.628L60.1342 13.7547C59.9908 13.6114 59.765 13.5922 59.5995 13.7093C59.0632 14.0887 58.5952 14.5566 58.2158 15.093L57.8325 15.6348C57.5744 15.9997 57.5888 16.4912 57.8677 16.8404L58.202 17.2588C58.5225 17.6599 58.8592 18.0472 59.2112 18.4199C59.2689 18.4809 59.3655 18.4818 59.4249 18.4225L62.0074 15.84Z" fill="#F7F8FD"/>
<path d="M59.9575 19.1662C59.8965 19.1085 59.8956 19.0119 59.955 18.9525L62.5374 16.37C62.596 16.3115 62.6909 16.3115 62.7495 16.37L64.6227 18.2433C64.766 18.3866 64.7852 18.6124 64.6681 18.7779C64.2887 19.3143 63.8208 19.7822 63.2844 20.1616L62.7426 20.5449C62.3778 20.803 61.8862 20.7886 61.537 20.5097L61.1186 20.1754C60.7175 19.8549 60.3302 19.5182 59.9575 19.1662Z" fill="#F7F8FD"/>
<path fill-rule="evenodd" clip-rule="evenodd" d="M71.3612 65.0848C71.129 64.2184 71.6432 63.3278 72.5096 63.0956C72.9949 62.9656 73.4877 63.0697 73.8682 63.3386C74.0632 62.9154 74.438 62.5789 74.9232 62.4489C75.7896 62.2167 76.6802 62.7309 76.9124 63.5974C77.01 63.9615 76.9757 64.3298 76.8389 64.6518L77.2918 64.5305C77.9583 64.3519 78.6433 64.7474 78.8219 65.4139L78.9836 66.0173C79.0372 66.2172 78.9185 66.4227 78.7186 66.4763L75.4844 67.3429C75.4044 67.3643 75.3222 67.3169 75.3008 67.2369L74.8531 65.5663C74.6931 65.5154 74.542 65.4401 74.4054 65.3436C74.3354 65.4955 74.2422 65.6362 74.129 65.7603L74.5767 67.4309C74.5981 67.5109 74.5506 67.5931 74.4707 67.6145L71.2365 68.4811C71.0365 68.5347 70.831 68.4161 70.7774 68.2161L70.6158 67.6127C70.4372 66.9462 70.8327 66.2612 71.4992 66.0826L71.952 65.9612C71.6726 65.7508 71.4587 65.4489 71.3612 65.0848ZM73.7748 64.4381C73.6497 63.9715 73.1702 63.6947 72.7036 63.8197C72.2371 63.9447 71.9602 64.4242 72.0852 64.8908C72.2103 65.3573 72.6898 65.6342 73.1563 65.5092C73.6229 65.3842 73.8998 64.9046 73.7748 64.4381ZM74.4988 64.2441C74.6238 64.7106 75.1034 64.9875 75.5699 64.8625C76.0365 64.7375 76.3133 64.2579 76.1883 63.7914C76.0633 63.3248 75.5838 63.048 75.1172 63.173C74.6507 63.298 74.3738 63.7775 74.4988 64.2441Z" fill="#F7F8FD"/>
<path d="M74.8289 68.3722C74.8075 68.2922 74.7253 68.2448 74.6453 68.2662L72.0864 68.9519C71.8906 69.0043 71.7611 69.1903 71.7797 69.3921C71.8401 70.0463 72.0114 70.6855 72.2862 71.2823L72.5638 71.8852C72.7507 72.2911 73.1836 72.5245 73.6254 72.4575L74.155 72.3772C74.6625 72.3002 75.1663 72.2023 75.6651 72.0837C75.7468 72.0643 75.7959 71.9811 75.7742 71.8999L74.8289 68.3722Z" fill="#F7F8FD"/>
<path d="M76.6846 71.8105C76.6041 71.8346 76.52 71.7871 76.4982 71.7059L75.553 68.1782C75.5315 68.0982 75.579 68.016 75.659 67.9946L78.2178 67.3089C78.4137 67.2565 78.6188 67.3527 78.7036 67.5369C78.9784 68.1337 79.1496 68.7728 79.2101 69.4271L79.2711 70.088C79.3122 70.533 79.054 70.9515 78.6378 71.1144L78.1391 71.3096C77.661 71.4967 77.1758 71.6638 76.6846 71.8105Z" fill="#F7F8FD"/>
<path fill-rule="evenodd" clip-rule="evenodd" d="M124.129 -4.62801C125.287 -5.78667 127.166 -5.78667 128.325 -4.62801C128.973 -3.97912 129.259 -3.10444 129.181 -2.25687C130.029 -2.33478 130.903 -2.04929 131.552 -1.4004C132.711 -0.241742 132.711 1.63682 131.552 2.79548C131.065 3.28237 130.451 3.56466 129.817 3.64235L130.422 4.2479C131.314 5.13918 131.314 6.58423 130.422 7.4755L129.616 8.28241C129.348 8.54979 128.915 8.54979 128.647 8.2824L124.322 3.95742C124.215 3.85046 124.215 3.67706 124.322 3.5701L126.556 1.33602C126.491 1.03643 126.472 0.728644 126.5 0.424346C126.195 0.452318 125.888 0.433448 125.588 0.367736L123.354 2.60182C123.247 2.70878 123.074 2.70878 122.967 2.60182L118.642 -1.72316C118.374 -1.99055 118.374 -2.42406 118.642 -2.69144L119.449 -3.49835C120.34 -4.38962 121.785 -4.38962 122.676 -3.49835L123.282 -2.8928C123.359 -3.5271 123.642 -4.14111 124.129 -4.62801ZM127.356 -1.4004C127.98 -2.0243 127.98 -3.03583 127.356 -3.65973C126.732 -4.28362 125.721 -4.28362 125.097 -3.65973C124.473 -3.03583 124.473 -2.0243 125.097 -1.4004C125.721 -0.776508 126.732 -0.776509 127.356 -1.4004ZM128.325 -0.432122C127.701 0.191772 127.701 1.2033 128.325 1.8272C128.948 2.45109 129.96 2.45109 130.584 1.8272C131.208 1.20331 131.208 0.191773 130.584 -0.432122C129.96 -1.05602 128.948 -1.05602 128.325 -0.432122Z" fill="#0079F0"/>
<path d="M122.095 3.86059C122.202 3.75364 122.202 3.58023 122.095 3.47328L118.673 0.0513844C118.412 -0.210473 117.999 -0.245554 117.697 -0.0316863C116.717 0.661451 115.862 1.51621 115.169 2.49602L114.469 3.48582C113.997 4.15228 114.024 5.05024 114.533 5.68804L115.144 6.45244C115.729 7.18512 116.344 7.89266 116.987 8.57337C117.093 8.6849 117.269 8.6866 117.378 8.57812L122.095 3.86059Z" fill="#0079F0"/>
<path d="M118.351 9.93675C118.239 9.83139 118.238 9.65488 118.346 9.5464L123.064 4.82887C123.17 4.72192 123.344 4.72192 123.451 4.82887L126.873 8.25077C127.135 8.51262 127.17 8.92506 126.956 9.22738C126.263 10.2072 125.408 11.062 124.428 11.7551L123.438 12.4553C122.772 12.9268 121.874 12.9005 121.236 12.391L120.472 11.7803C119.739 11.1949 119.031 10.5798 118.351 9.93675Z" fill="#0079F0"/>
<path fill-rule="evenodd" clip-rule="evenodd" d="M200.558 77.6445C199.887 76.4834 200.285 74.9988 201.446 74.3284C202.097 73.953 202.848 73.9126 203.502 74.1537C203.619 73.4674 204.03 72.8366 204.681 72.4611C205.842 71.7908 207.326 72.1886 207.997 73.3497C208.278 73.8376 208.371 74.3826 208.298 74.9003L208.905 74.55C209.798 74.0344 210.94 74.3404 211.456 75.2335L211.923 76.0421C212.078 76.31 211.986 76.6526 211.718 76.8073L207.384 79.3095C207.277 79.3714 207.14 79.3346 207.078 79.2275L205.785 76.9888C205.535 76.9773 205.287 76.927 205.053 76.8404C205.01 77.0869 204.93 77.3261 204.815 77.549L206.107 79.7877C206.169 79.8948 206.133 80.0319 206.025 80.0937L201.692 82.5959C201.424 82.7506 201.081 82.6588 200.926 82.3909L200.46 81.5823C199.944 80.6892 200.25 79.5472 201.143 79.0315L201.75 78.6812C201.265 78.4855 200.839 78.1324 200.558 77.6445ZM203.792 75.7772C203.431 75.152 202.632 74.9378 202.006 75.2987C201.381 75.6597 201.167 76.4591 201.528 77.0843C201.889 77.7095 202.688 77.9237 203.314 77.5627C203.939 77.2018 204.153 76.4023 203.792 75.7772ZM204.762 75.217C205.123 75.8422 205.923 76.0564 206.548 75.6954C207.173 75.3345 207.387 74.535 207.026 73.9099C206.665 73.2847 205.866 73.0705 205.241 73.4314C204.616 73.7924 204.401 74.5918 204.762 75.217Z" fill="#0079F0"/>
<path d="M206.836 81.049C206.774 80.9418 206.637 80.9051 206.53 80.967L203.101 82.9467C202.838 83.0982 202.723 83.4167 202.828 83.7009C203.169 84.6221 203.663 85.4786 204.291 86.2339L204.925 86.9968C205.351 87.5106 206.067 87.68 206.679 87.4123L207.412 87.0916C208.115 86.7841 208.804 86.4478 209.479 86.0838C209.589 86.0241 209.628 85.885 209.565 85.7763L206.836 81.049Z" fill="#0079F0"/>
<path d="M210.845 85.295C210.738 85.3608 210.598 85.3248 210.535 85.2161L207.806 80.4888C207.744 80.3817 207.781 80.2446 207.888 80.1827L211.317 78.203C211.579 78.0515 211.913 78.1111 212.106 78.3442C212.734 79.0995 213.229 79.956 213.569 80.8771L213.913 81.8076C214.144 82.4342 213.933 83.1383 213.395 83.5344L212.751 84.0092C212.133 84.4643 211.497 84.8932 210.845 85.295Z" fill="#0079F0"/>
<path fill-rule="evenodd" clip-rule="evenodd" d="M201.008 14.9234C201.403 13.4496 202.918 12.575 204.391 12.9699C205.217 13.191 205.854 13.7635 206.186 14.4832C206.833 14.0258 207.672 13.8488 208.497 14.0699C209.971 14.4649 210.845 15.9798 210.451 17.4536C210.285 18.0729 209.921 18.5865 209.446 18.9444L210.216 19.1508C211.35 19.4546 212.022 20.6199 211.719 21.7536L211.444 22.78C211.352 23.1201 211.003 23.322 210.663 23.2308L205.161 21.7567C205.025 21.7203 204.944 21.5804 204.981 21.4444L205.742 18.6026C205.55 18.3916 205.391 18.1522 205.272 17.8938C205.04 18.058 204.783 18.1861 204.511 18.2726L203.749 21.1144C203.713 21.2504 203.573 21.3311 203.437 21.2947L197.936 19.8206C197.595 19.7295 197.394 19.3799 197.485 19.0398L197.76 18.0134C198.064 16.8797 199.229 16.2069 200.363 16.5106L201.133 16.717C200.9 16.1693 200.842 15.5428 201.008 14.9234ZM205.113 16.0235C205.326 15.2299 204.855 14.4142 204.061 14.2015C203.268 13.9889 202.452 14.4598 202.24 15.2534C202.027 16.047 202.498 16.8628 203.291 17.0754C204.085 17.2881 204.901 16.8171 205.113 16.0235ZM206.345 16.3535C206.132 17.1471 206.603 17.9628 207.397 18.1755C208.191 18.3881 209.006 17.9172 209.219 17.1236C209.432 16.33 208.961 15.5143 208.167 15.3016C207.373 15.089 206.558 15.5599 206.345 16.3535Z" fill="url(#paint11_linear_1_8446)"/>
<path d="M203.32 22.7155C203.357 22.5795 203.276 22.4396 203.14 22.4032L198.787 21.2369C198.454 21.1476 198.105 21.3114 197.961 21.6246C197.494 22.6398 197.202 23.727 197.099 24.8399L196.996 25.9641C196.926 26.721 197.365 27.433 198.073 27.71L198.921 28.0421C199.734 28.3604 200.56 28.6446 201.395 28.8942C201.532 28.9351 201.675 28.8543 201.712 28.7163L203.32 22.7155Z" fill="url(#paint12_linear_1_8446)"/>
<path d="M203.13 29.3589C202.991 29.3258 202.907 29.1843 202.944 29.0463L204.552 23.0456C204.588 22.9095 204.728 22.8288 204.864 22.8652L209.217 24.0315C209.55 24.1208 209.77 24.437 209.739 24.7804C209.636 25.8933 209.345 26.9805 208.877 27.9957L208.405 29.0212C208.087 29.7117 207.351 30.1086 206.599 29.9946L205.698 29.858C204.835 29.7271 203.978 29.5605 203.13 29.3589Z" fill="url(#paint13_linear_1_8446)"/>
<path fill-rule="evenodd" clip-rule="evenodd" d="M50.8575 3.87332C50.539 2.68456 51.2444 1.46266 52.4332 1.14413C53.099 0.965747 53.7751 1.10852 54.2971 1.47749C54.5647 0.896937 55.0789 0.43522 55.7447 0.256834C56.9334 -0.0616935 58.1553 0.643769 58.4738 1.83253C58.6077 2.33207 58.5607 2.83746 58.3731 3.27921L58.9943 3.11274C59.9088 2.86772 60.8487 3.41039 61.0937 4.32482L61.3155 5.15268C61.389 5.42701 61.2262 5.70898 60.9519 5.78249L56.5146 6.97147C56.4048 7.00087 56.292 6.93575 56.2626 6.82602L55.6485 4.5339C55.4289 4.46414 55.2216 4.36082 55.0342 4.22836C54.9381 4.43679 54.8103 4.6299 54.655 4.80009L55.2692 7.09221C55.2986 7.20194 55.2335 7.31473 55.1238 7.34414L50.6864 8.53312C50.4121 8.60662 50.1301 8.44383 50.0566 8.1695L49.8348 7.34163C49.5898 6.4272 50.1324 5.48728 51.0469 5.24226L51.6681 5.07579C51.2847 4.78706 50.9914 4.37286 50.8575 3.87332ZM54.169 2.98602C53.9974 2.34592 53.3395 1.96605 52.6994 2.13757C52.0593 2.30908 51.6794 2.96703 51.8509 3.60713C52.0225 4.24723 52.6804 4.62709 53.3205 4.45558C53.9606 4.28406 54.3405 3.62612 54.169 2.98602ZM55.1624 2.71983C55.3339 3.35993 55.9919 3.73979 56.632 3.56828C57.2721 3.39677 57.6519 2.73882 57.4804 2.09872C57.3089 1.45862 56.6509 1.07875 56.0108 1.25027C55.3707 1.42178 54.9909 2.07973 55.1624 2.71983Z" fill="url(#paint14_linear_1_8446)"/>
<path d="M55.6153 8.38368C55.5859 8.27395 55.4731 8.20883 55.3633 8.23823L51.8525 9.17894C51.5839 9.25093 51.4062 9.50603 51.4318 9.78298C51.5147 10.6806 51.7496 11.5576 52.1267 12.3764L52.5075 13.2035C52.764 13.7604 53.3579 14.0806 53.9641 13.9887L54.6906 13.8785C55.387 13.7729 56.0782 13.6385 56.7625 13.4759C56.8746 13.4492 56.942 13.3351 56.9122 13.2238L55.6153 8.38368Z" fill="url(#paint15_linear_1_8446)"/>
<path d="M58.1613 13.1011C58.0509 13.134 57.9354 13.0689 57.9056 12.9576L56.6087 8.11749C56.5793 8.00776 56.6444 7.89497 56.7541 7.86557L60.2649 6.92485C60.5336 6.85287 60.815 6.98493 60.9314 7.23757C61.3084 8.05637 61.5434 8.93334 61.6263 9.83095L61.71 10.7377C61.7664 11.3482 61.4121 11.9225 60.8411 12.146L60.1568 12.4138C59.501 12.6706 58.8352 12.8998 58.1613 13.1011Z" fill="url(#paint16_linear_1_8446)"/>
</g>
<defs>
<linearGradient id="paint0_linear_1_8446" x1="83.7787" y1="-13.3147" x2="40.8191" y2="23.5967" gradientUnits="userSpaceOnUse">
<stop offset="0.147723" stop-color="#474B61"/>
<stop offset="1" stop-color="#1F2235" stop-opacity="0"/>
</linearGradient>
<linearGradient id="paint1_linear_1_8446" x1="255.711" y1="10.4653" x2="223.035" y2="38.5406" gradientUnits="userSpaceOnUse">
<stop offset="0.147723" stop-color="#474B61"/>
<stop offset="1" stop-color="#1F2235" stop-opacity="0"/>
</linearGradient>
<linearGradient id="paint2_linear_1_8446" x1="191.351" y1="11.2321" x2="139.475" y2="-40.6443" gradientUnits="userSpaceOnUse">
<stop offset="0.147723" stop-color="#474B61"/>
<stop offset="1" stop-color="#1F2235" stop-opacity="0"/>
</linearGradient>
<linearGradient id="paint3_linear_1_8446" x1="55.2448" y1="89.0572" x2="3.36846" y2="37.1809" gradientUnits="userSpaceOnUse">
<stop offset="0.147723" stop-color="#474B61"/>
<stop offset="1" stop-color="#1F2235" stop-opacity="0"/>
</linearGradient>
<linearGradient id="paint4_linear_1_8446" x1="176.741" y1="92.6676" x2="124.865" y2="40.7912" gradientUnits="userSpaceOnUse">
<stop offset="0.147723" stop-color="#474B61"/>
<stop offset="1" stop-color="#1F2235" stop-opacity="0"/>
</linearGradient>
<linearGradient id="paint5_linear_1_8446" x1="250.884" y1="38.0505" x2="316.955" y2="69.9387" gradientUnits="userSpaceOnUse">
<stop offset="0.147723" stop-color="#474B61"/>
<stop offset="1" stop-color="#1F2235" stop-opacity="0"/>
</linearGradient>
<linearGradient id="paint6_linear_1_8446" x1="98.8575" y1="-14.8691" x2="98.8575" y2="3.72557" gradientUnits="userSpaceOnUse">
<stop offset="0.147723" stop-color="#474B61"/>
<stop offset="1" stop-color="#1F2235" stop-opacity="0"/>
</linearGradient>
<linearGradient id="paint7_linear_1_8446" x1="240.959" y1="80.7443" x2="230.319" y2="91.3841" gradientUnits="userSpaceOnUse">
<stop offset="0.147723" stop-color="#474B61"/>
<stop offset="1" stop-color="#1F2235" stop-opacity="0"/>
</linearGradient>
<linearGradient id="paint8_linear_1_8446" x1="255.152" y1="-4.98084" x2="270.543" y2="-0.856737" gradientUnits="userSpaceOnUse">
<stop offset="0.147723" stop-color="#474B61"/>
<stop offset="1" stop-color="#1F2235" stop-opacity="0"/>
</linearGradient>
<linearGradient id="paint9_linear_1_8446" x1="85.6016" y1="39.543" x2="72.9283" y2="52.2163" gradientUnits="userSpaceOnUse">
<stop offset="0.520833" stop-color="#474B61"/>
<stop offset="1" stop-color="#1F2235" stop-opacity="0"/>
</linearGradient>
<linearGradient id="paint10_linear_1_8446" x1="86.7913" y1="40.7288" x2="83.6228" y2="43.8973" gradientUnits="userSpaceOnUse">
<stop offset="0.520833" stop-color="#474B61"/>
<stop offset="1" stop-color="#1F2235" stop-opacity="0"/>
</linearGradient>
<linearGradient id="paint11_linear_1_8446" x1="206.444" y1="13.5199" x2="202.262" y2="29.1266" gradientUnits="userSpaceOnUse">
<stop offset="0.147723" stop-color="#474B61"/>
<stop offset="1" stop-color="#1F2235" stop-opacity="0"/>
</linearGradient>
<linearGradient id="paint12_linear_1_8446" x1="206.444" y1="13.5199" x2="202.262" y2="29.1266" gradientUnits="userSpaceOnUse">
<stop offset="0.147723" stop-color="#474B61"/>
<stop offset="1" stop-color="#1F2235" stop-opacity="0"/>
</linearGradient>
<linearGradient id="paint13_linear_1_8446" x1="206.444" y1="13.5199" x2="202.262" y2="29.1266" gradientUnits="userSpaceOnUse">
<stop offset="0.147723" stop-color="#474B61"/>
<stop offset="1" stop-color="#1F2235" stop-opacity="0"/>
</linearGradient>
<linearGradient id="paint14_linear_1_8446" x1="54.0889" y1="0.700484" x2="57.4619" y2="13.2886" gradientUnits="userSpaceOnUse">
<stop offset="0.147723" stop-color="#474B61"/>
<stop offset="1" stop-color="#1F2235" stop-opacity="0"/>
</linearGradient>
<linearGradient id="paint15_linear_1_8446" x1="54.0889" y1="0.700484" x2="57.4619" y2="13.2886" gradientUnits="userSpaceOnUse">
<stop offset="0.147723" stop-color="#474B61"/>
<stop offset="1" stop-color="#1F2235" stop-opacity="0"/>
</linearGradient>
<linearGradient id="paint16_linear_1_8446" x1="54.0889" y1="0.700484" x2="57.4619" y2="13.2886" gradientUnits="userSpaceOnUse">
<stop offset="0.147723" stop-color="#474B61"/>
<stop offset="1" stop-color="#1F2235" stop-opacity="0"/>
</linearGradient>
<clipPath id="clip0_1_8446">
<rect width="329" height="89" rx="15" fill="white"/>
</clipPath>
<clipPath id="clip1_1_8446">
<rect width="18.59" height="18.5947" fill="white" transform="translate(89.5625 -14.8691)"/>
</clipPath>
<clipPath id="clip2_1_8446">
<rect width="15.0431" height="15.0469" fill="white" transform="translate(235.641 75.4258) rotate(45)"/>
</clipPath>
<clipPath id="clip3_1_8446">
<rect width="17.9216" height="17.9261" fill="white" transform="translate(79.2695 33.2051) rotate(45)"/>
</clipPath>
</defs>
</svg>
