<svg width="26" height="18" viewBox="0 0 26 18" fill="none" xmlns="http://www.w3.org/2000/svg">
<rect x="1.39258" y="0.742188" width="24.0421" height="16.3566" rx="3.5" fill="#006FCF" stroke="#F3F3F3"/>
<path fill-rule="evenodd" clip-rule="evenodd" d="M6.01469 12.7797V9.20663H10.0403L10.4722 9.73577L10.9184 9.20663H25.5302V12.5333C25.5302 12.5333 25.1481 12.7762 24.7062 12.7797H16.6153L16.1283 12.2165V12.7797H14.5326V11.8182C14.5326 11.8182 14.3146 11.9525 13.8434 11.9525H13.3002V12.7797H10.8842L10.4529 12.2392L10.015 12.7797H6.01469ZM1.32434 6.51362L2.23007 4.52466H3.79643L4.31044 5.6388V4.52466H6.25757L6.56356 5.32992L6.8602 4.52466H15.6008V4.92949C15.6008 4.92949 16.0603 4.52466 16.8154 4.52466L19.6514 4.53399L20.1566 5.63355V4.52466H21.786L22.2345 5.15626V4.52466H23.8789V8.09775H22.2345L21.8047 7.4641V8.09775H19.4107L19.1699 7.53451H18.5263L18.2895 8.09775H16.6659C16.0162 8.09775 15.6008 7.70119 15.6008 7.70119V8.09775H13.1529L12.667 7.53451V8.09775H3.56438L3.32379 7.53451H2.68225L2.44336 8.09775H1.32434V6.51362ZM1.32906 7.64053L2.55069 4.96511H3.47684L4.6973 7.64053H3.88444L3.6602 7.10479H2.34981L2.12441 7.64053H1.32906ZM3.40214 6.52396L3.00272 5.58778L2.60212 6.52396H3.40214ZM4.78136 7.64012V4.9647L5.91158 4.96866L6.56896 6.6936L7.2106 4.9647H8.33178V7.64012H7.6217V5.66876L6.86899 7.64012H6.24625L5.49144 5.66876V7.64012H4.78136ZM8.81763 7.64012V4.9647H11.1348V5.56315H9.53519V6.02079H11.0974V6.58403H9.53519V7.05927H11.1348V7.64012H8.81763ZM11.5458 7.64053V4.96511H13.126C13.6495 4.96511 14.1187 5.27008 14.1187 5.83308C14.1187 6.31437 13.7231 6.62437 13.3397 6.65485L14.274 7.64053H13.4063L12.5549 6.69005H12.2559V7.64053H11.5458ZM13.0676 5.56354H12.2559V6.12678H13.0782C13.2205 6.12678 13.404 6.0229 13.404 5.84516C13.404 5.70701 13.2624 5.56354 13.0676 5.56354ZM15.1336 7.64012H14.4086V4.9647H15.1336V7.64012ZM16.8528 7.64012H16.6963C15.939 7.64012 15.4793 7.0782 15.4793 6.31341C15.4793 5.52973 15.9339 4.9647 16.8901 4.9647H17.675V5.59835H16.8614C16.4733 5.59835 16.1987 5.8837 16.1987 6.32001C16.1987 6.83814 16.5126 7.05575 16.9649 7.05575H17.1517L16.8528 7.64012ZM17.1764 7.64053L18.398 4.96511H19.3241L20.5446 7.64053H19.7317L19.5075 7.10479H18.1971L17.9717 7.64053H17.1764ZM19.2495 6.52396L18.85 5.58778L18.4494 6.52396H19.2495ZM20.6275 7.64012V4.9647H21.5303L22.683 6.64564V4.9647H23.3931V7.64012H22.5195L21.3376 5.91518V7.64012H20.6275ZM6.50051 12.3221V9.64668H8.81763V10.2451H7.21807V10.7028H8.78025V11.266H7.21807V11.7413H8.81763V12.3221H6.50051ZM17.8544 12.3221V9.64668H20.1715V10.2451H18.572V10.7028H20.1267V11.266H18.572V11.7413H20.1715V12.3221H17.8544ZM8.90751 12.3221L10.0357 11.0009L8.88065 9.64668H9.77526L10.4632 10.4839L11.1534 9.64668H12.013L10.8731 10.9844L12.0034 12.3221H11.1089L10.441 11.4981L9.78928 12.3221H8.90751ZM12.0878 12.3225V9.6471H13.6563C14.2999 9.6471 14.6759 10.0378 14.6759 10.547C14.6759 11.1616 14.1965 11.4776 13.564 11.4776H12.8166V12.3225H12.0878ZM13.6037 10.2522H12.8165V10.8682H13.6014C13.8087 10.8682 13.9541 10.7387 13.9541 10.5602C13.9541 10.3701 13.808 10.2522 13.6037 10.2522ZM14.9842 12.3221V9.64668H16.5644C17.088 9.64668 17.5571 9.95165 17.5571 10.5147C17.5571 10.9959 17.1616 11.3059 16.7781 11.3364L17.7124 12.3221H16.8447L15.9933 11.3716H15.6943V12.3221H14.9842ZM16.506 10.2451H15.6943V10.8084H16.5165C16.6589 10.8084 16.8424 10.7045 16.8424 10.5267C16.8424 10.3886 16.7007 10.2451 16.506 10.2451ZM20.5004 12.3221V11.7413H21.9215C22.1317 11.7413 22.2228 11.6342 22.2228 11.5168C22.2228 11.4044 22.132 11.2907 21.9215 11.2907H21.2793C20.7211 11.2907 20.4102 10.9703 20.4102 10.4894C20.4102 10.0604 20.6949 9.64668 21.5244 9.64668H22.9072L22.6082 10.2487H21.4123C21.1836 10.2487 21.1133 10.3616 21.1133 10.4696C21.1133 10.5805 21.2002 10.7028 21.3749 10.7028H22.0476C22.6699 10.7028 22.9399 11.0352 22.9399 11.4706C22.9399 11.9387 22.639 12.3221 22.0137 12.3221H20.5004ZM23.0025 12.3221V11.7413H24.4236C24.6339 11.7413 24.725 11.6342 24.725 11.5168C24.725 11.4044 24.6342 11.2907 24.4236 11.2907H23.7815C23.2233 11.2907 22.9124 10.9703 22.9124 10.4894C22.9124 10.0604 23.1971 9.64668 24.0266 9.64668H25.4094L25.1104 10.2487H23.9144C23.6858 10.2487 23.6155 10.3616 23.6155 10.4696C23.6155 10.5805 23.7024 10.7028 23.8771 10.7028H24.5498C25.172 10.7028 25.4421 11.0352 25.4421 11.4706C25.4421 11.9387 25.1412 12.3221 24.5159 12.3221H23.0025Z" fill="white"/>
</svg>
