<svg width="20" height="20" viewBox="0 0 20 20" fill="none" xmlns="http://www.w3.org/2000/svg">
<path fill-rule="evenodd" clip-rule="evenodd" d="M5.84703 1.37204C6.00975 1.20932 6.27357 1.20932 6.43629 1.37204L7.35772 2.29347C8.04881 1.89478 8.85071 1.66667 9.70588 1.66667H10.2941C11.15 1.66667 11.9525 1.89515 12.644 2.29444L13.5664 1.37204C13.7291 1.20932 13.9929 1.20932 14.1556 1.37204C14.3183 1.53476 14.3183 1.79858 14.1556 1.96129L13.3355 2.78141C14.3537 3.64462 15 4.93311 15 6.37255C15 6.53499 14.8683 6.66667 14.7059 6.66667H5.29412C5.13168 6.66667 5 6.53499 5 6.37255C5 4.93243 5.64689 3.64341 6.66594 2.7802L5.84703 1.96129C5.68432 1.79858 5.68432 1.53476 5.84703 1.37204ZM8.75 4.375C8.75 4.72018 8.47018 5 8.125 5C7.77982 5 7.5 4.72018 7.5 4.375C7.5 4.02982 7.77982 3.75 8.125 3.75C8.47018 3.75 8.75 4.02982 8.75 4.375ZM11.8531 5C12.1983 5 12.4781 4.72018 12.4781 4.375C12.4781 4.02982 12.1983 3.75 11.8531 3.75C11.5079 3.75 11.2281 4.02982 11.2281 4.375C11.2281 4.72018 11.5079 5 11.8531 5Z" fill="white"/>
<path d="M3.33333 7.45613C2.8731 7.45613 2.5 7.82923 2.5 8.28946V13.2895C2.5 13.7497 2.8731 14.1228 3.33333 14.1228C3.79357 14.1228 4.16667 13.7497 4.16667 13.2895V8.28946C4.16667 7.82923 3.79357 7.45613 3.33333 7.45613Z" fill="white"/>
<path d="M5.83333 7.45613C5.3731 7.45613 5 7.82923 5 8.28946V15.7895C5 16.2497 5.3731 16.6228 5.83333 16.6228H14.1667C14.6269 16.6228 15 16.2497 15 15.7895V8.28946C15 7.82923 14.6269 7.45613 14.1667 7.45613H5.83333Z" fill="white"/>
<path d="M16.0088 8.28946C16.0088 7.82923 16.3819 7.45613 16.8421 7.45613C17.3023 7.45613 17.6754 7.82923 17.6754 8.28946V13.2895C17.6754 13.7497 17.3023 14.1228 16.8421 14.1228C16.3819 14.1228 16.0088 13.7497 16.0088 13.2895V8.28946Z" fill="white"/>
<path d="M6.49457 17.5C6.3595 17.5 6.25 17.6095 6.25 17.7446V17.9167C6.25 18.7221 6.90292 19.375 7.70833 19.375C8.51375 19.375 9.16667 18.7221 9.16667 17.9167V17.7446C9.16667 17.6095 9.05717 17.5 8.9221 17.5H6.49457Z" fill="white"/>
<path d="M10.8333 17.7446C10.8333 17.6095 10.9428 17.5 11.0779 17.5H13.5054C13.6405 17.5 13.75 17.6095 13.75 17.7446V17.9167C13.75 18.7221 13.0971 19.375 12.2917 19.375C11.4863 19.375 10.8333 18.7221 10.8333 17.9167V17.7446Z" fill="white"/>
</svg>
