<svg width="8" height="8" viewBox="0 0 8 8" fill="none" xmlns="http://www.w3.org/2000/svg">
<path d="M7.38821 1.49565C7.63229 1.25158 7.63229 0.855847 7.38821 0.611769C7.14413 0.367691 6.7484 0.367691 6.50433 0.611769L3.99999 3.1161L1.49566 0.61177C1.25158 0.367692 0.855855 0.367692 0.611777 0.611769C0.367699 0.855847 0.367699 1.25158 0.611777 1.49565L3.11611 3.99999L0.611769 6.50433C0.367692 6.7484 0.367691 7.14413 0.611769 7.38821C0.855847 7.63229 1.25158 7.63229 1.49565 7.38821L3.99999 4.88387L6.50433 7.38821C6.74841 7.63229 7.14414 7.63229 7.38822 7.38821C7.6323 7.14413 7.6323 6.7484 7.38822 6.50433L4.88388 3.99999L7.38821 1.49565Z" fill="#FF4C34"/>
</svg>
