<svg width="45" height="9" viewBox="0 0 45 9" fill="none" xmlns="http://www.w3.org/2000/svg">
<path fill-rule="evenodd" clip-rule="evenodd" d="M41.5633 0.655774C43.1965 0.655774 44.0948 1.39705 44.0948 2.79724C44.1764 3.86797 43.4415 4.77397 42.4616 4.9387L44.6664 7.98617H42.9515L41.0733 5.02107H40.91V7.98617H39.5217V0.655774H41.5633ZM40.91 4.03275H41.3183C42.2166 4.03275 42.6249 3.62093 42.6249 2.87966C42.6249 2.22074 42.2166 1.80892 41.3183 1.80892H40.91V4.03275ZM34.7037 7.98617H38.6235V6.75071H36.092V4.77397H38.5418V3.53851H36.092V1.89123H38.6235V0.655774H34.7037V7.98617ZM30.6205 5.59761L28.7423 0.655774H27.2724L30.2939 8.1509H31.0288L34.0503 0.655774H32.5804L30.6205 5.59761ZM14.0434 4.36211C14.0434 6.42121 15.6766 8.15085 17.7181 8.15085C18.3714 8.15085 18.9431 7.98613 19.5147 7.73903V6.09176C19.1064 6.58594 18.5348 6.9154 17.8815 6.9154C16.5749 6.9154 15.5133 5.92703 15.5133 4.6092V4.44448C15.4316 3.12665 16.4932 1.97356 17.7998 1.89119C18.4531 1.89119 19.1064 2.22065 19.5147 2.71483V1.06755C19.0247 0.738097 18.3714 0.655733 17.7998 0.655733C15.6766 0.491005 14.0434 2.22065 14.0434 4.36211ZM11.5118 3.45615C10.6952 3.12669 10.4502 2.96196 10.4502 2.55014C10.5319 2.05596 10.9402 1.64414 11.4302 1.7265C11.8385 1.7265 12.2468 1.97359 12.5734 2.30305L13.3084 1.31468C12.7368 0.820498 12.0018 0.491043 11.2669 0.491043C10.1236 0.408679 9.14365 1.31468 9.06199 2.46778V2.55014C9.06199 3.53851 9.4703 4.11506 10.7769 4.52688C11.1035 4.60924 11.4302 4.77397 11.7568 4.9387C12.0018 5.10343 12.1651 5.35052 12.1651 5.67997C12.1651 6.25652 11.6752 6.75071 11.1852 6.75071H11.1035C10.4502 6.75071 9.87861 6.33889 9.63362 5.76234L8.73535 6.66834C9.22532 7.57435 10.2053 8.06853 11.1852 8.06853C12.4918 8.15089 13.5534 7.16253 13.635 5.8447V5.59761C13.5534 4.60924 13.1451 4.11506 11.5118 3.45615ZM6.77548 7.98617H8.16372V0.655774H6.77548V7.98617ZM0.324219 0.655774H2.36576H2.77406C4.73394 0.738138 6.28551 2.38542 6.20385 4.36215C6.20385 5.43289 5.71388 6.42126 4.89726 7.16253C4.16231 7.73908 3.26403 8.06854 2.36576 7.98617H0.324219V0.655774ZM2.1208 6.75068C2.77409 6.83304 3.50904 6.58595 3.99901 6.17413C4.48898 5.67994 4.73397 5.02103 4.73397 4.27976C4.73397 3.62084 4.48898 2.96193 3.99901 2.46775C3.50904 2.05593 2.77409 1.80883 2.1208 1.8912H1.71249V6.75068H2.1208Z" fill="#E6F5FF"/>
<path fill-rule="evenodd" clip-rule="evenodd" d="M23.6795 0.48584C21.6379 0.48584 19.923 2.13312 19.923 4.27458C19.923 6.33368 21.5563 8.06333 23.6795 8.14569C25.8027 8.22806 27.4359 6.49841 27.5176 4.35695C27.4359 2.21548 25.8027 0.48584 23.6795 0.48584V0.48584Z" fill="#FD6020"/>
</svg>
