<svg width="23" height="23" viewBox="0 0 23 23" fill="none" xmlns="http://www.w3.org/2000/svg">
<path d="M12.6123 4.22343C11.928 3.81139 11.072 3.81139 10.3877 4.22343L9.89295 4.52137C8.6924 5.24428 7.34462 5.68788 5.94941 5.81933L5.63768 5.8487C5.02234 5.90667 4.55212 6.42327 4.55212 7.04134V8.61673C4.55212 11.2796 5.63321 13.8283 7.54772 15.6791L10.6674 18.695C11.1318 19.1439 11.8683 19.1439 12.3326 18.695L15.4524 15.6791C17.3669 13.8283 18.448 11.2796 18.448 8.61673V7.04134C18.448 6.42327 17.9777 5.90667 17.3624 5.8487L17.0507 5.81933C15.6555 5.68788 14.3077 5.24428 13.1071 4.52137L12.6123 4.22343Z" fill="#0079F0"/>
</svg>
