<svg width="23" height="23" viewBox="0 0 23 23" fill="none" xmlns="http://www.w3.org/2000/svg">
<path fill-rule="evenodd" clip-rule="evenodd" d="M3.78284 4.79167C3.78284 3.99776 4.42643 3.35417 5.22034 3.35417H17.6787C18.4726 3.35417 19.1162 3.99776 19.1162 4.79167V8.62501C19.1162 9.41891 18.4726 10.0625 17.6787 10.0625H5.22034C4.42643 10.0625 3.78284 9.41891 3.78284 8.62501V4.79167ZM5.74995 6.70834C5.74995 6.17907 6.17901 5.75001 6.70829 5.75001C7.23756 5.75001 7.66662 6.17907 7.66662 6.70834C7.66662 7.23761 7.23756 7.66667 6.70829 7.66667C6.17901 7.66667 5.74995 7.23761 5.74995 6.70834ZM9.58329 5.75001C9.05401 5.75001 8.62495 6.17907 8.62495 6.70834C8.62495 7.23761 9.05401 7.66667 9.58329 7.66667C10.1126 7.66667 10.5416 7.23761 10.5416 6.70834C10.5416 6.17907 10.1126 5.75001 9.58329 5.75001Z" fill="#0079F0"/>
<path fill-rule="evenodd" clip-rule="evenodd" d="M3.78284 12.4583C3.78284 11.6644 4.42643 11.0208 5.22034 11.0208H17.6787C18.4726 11.0208 19.1162 11.6644 19.1162 12.4583V16.2917C19.1162 17.0856 18.4726 17.7292 17.6787 17.7292H12.2187V19.4063H18.2083C18.6052 19.4063 18.927 19.7281 18.927 20.125C18.927 20.522 18.6052 20.8438 18.2083 20.8438H4.79162C4.39467 20.8438 4.07287 20.522 4.07287 20.125C4.07287 19.7281 4.39467 19.4063 4.79162 19.4063H10.7812V17.7292H5.22034C4.42643 17.7292 3.78284 17.0856 3.78284 16.2917V12.4583ZM5.74995 14.375C5.74995 13.8457 6.17901 13.4167 6.70829 13.4167C7.23756 13.4167 7.66662 13.8457 7.66662 14.375C7.66662 14.9043 7.23756 15.3333 6.70829 15.3333C6.17901 15.3333 5.74995 14.9043 5.74995 14.375ZM8.62495 14.375C8.62495 13.8457 9.05401 13.4167 9.58329 13.4167C10.1126 13.4167 10.5416 13.8457 10.5416 14.375C10.5416 14.9043 10.1126 15.3333 9.58329 15.3333C9.05401 15.3333 8.62495 14.9043 8.62495 14.375Z" fill="#0079F0"/>
</svg>
