<svg width="23" height="23" viewBox="0 0 23 23" fill="none" xmlns="http://www.w3.org/2000/svg">
<path d="M7.42709 3.83334C7.42709 3.43639 7.1053 3.11459 6.70834 3.11459C6.31139 3.11459 5.98959 3.43639 5.98959 3.83334V5.57409C4.55873 5.77638 3.42833 6.90811 3.23697 8.35173L3.15402 8.97748C3.13996 9.08357 3.12652 9.18971 3.11368 9.29592C3.07965 9.57764 3.3016 9.82293 3.58537 9.82293H19.4146C19.6984 9.82293 19.9203 9.57764 19.8863 9.29592C19.8734 9.18971 19.86 9.08356 19.8459 8.97747L19.763 8.35173C19.5716 6.90813 18.4413 5.77641 17.0104 5.57409V3.83334C17.0104 3.43639 16.6886 3.11459 16.2917 3.11459C15.8947 3.11459 15.5729 3.43639 15.5729 3.83334V5.43149C12.863 5.19016 10.137 5.19015 7.42709 5.43149V3.83334Z" fill="#0079F0"/>
<path d="M20.0719 11.7162C20.0635 11.4608 19.8525 11.2604 19.597 11.2604H3.40292C3.14746 11.2604 2.93646 11.4608 2.92807 11.7162C2.87115 13.4485 2.97638 15.1844 3.2435 16.901C3.44572 18.2006 4.50147 19.1987 5.81031 19.3278L6.9536 19.4406C9.97719 19.7387 13.0228 19.7387 16.0464 19.4406L17.1897 19.3278C18.4985 19.1987 19.5542 18.2006 19.7565 16.901C20.0236 15.1844 20.1288 13.4485 20.0719 11.7162Z" fill="#0079F0"/>
</svg>
