<svg width="35" height="27" viewBox="0 0 35 27" fill="none" xmlns="http://www.w3.org/2000/svg">
<path fill-rule="evenodd" clip-rule="evenodd" d="M9.95725 23.6239V25.0112V26.3986H9.33825V26.0617C9.14192 26.3115 8.84401 26.4684 8.43907 26.4684C7.64079 26.4684 7.01497 25.8591 7.01497 25.0112C7.01497 24.1641 7.64079 23.5541 8.43907 23.5541C8.84401 23.5541 9.14192 23.7109 9.33825 23.9608V23.6239H9.95725ZM8.51609 24.1229C7.98026 24.1229 7.65236 24.5235 7.65236 25.0112C7.65236 25.4989 7.98026 25.8996 8.51609 25.8996C9.02805 25.8996 9.37368 25.5162 9.37368 25.0112C9.37368 24.5063 9.02805 24.1229 8.51609 24.1229ZM30.8749 25.0112C30.8749 24.5235 31.2028 24.1229 31.7387 24.1229C32.2513 24.1229 32.5963 24.5063 32.5963 25.0112C32.5963 25.5162 32.2513 25.8996 31.7387 25.8996C31.2028 25.8996 30.8749 25.4989 30.8749 25.0112ZM33.1805 22.5096V25.0112V26.3986H32.5608V26.0617C32.3645 26.3115 32.0666 26.4684 31.6616 26.4684C30.8633 26.4684 30.2375 25.8591 30.2375 25.0112C30.2375 24.1641 30.8633 23.5541 31.6616 23.5541C32.0666 23.5541 32.3645 23.7109 32.5608 23.9608V22.5096H33.1805ZM17.6408 24.0943C18.0396 24.0943 18.296 24.3382 18.3614 24.7674L16.8841 24.7674C16.9503 24.3667 17.1998 24.0943 17.6408 24.0943ZM16.2351 25.0112C16.2351 24.1462 16.8187 23.5541 17.6531 23.5541C18.4507 23.5541 18.9988 24.1462 19.0049 25.0112C19.0049 25.0923 18.9988 25.1681 18.9927 25.2431L16.8787 25.2431C16.968 25.7428 17.3313 25.9229 17.7301 25.9229C18.0158 25.9229 18.3198 25.8179 18.5584 25.6325L18.8618 26.0797C18.5161 26.364 18.1235 26.4684 17.6947 26.4684C16.8425 26.4684 16.2351 25.8936 16.2351 25.0112ZM25.1274 25.0112C25.1274 24.5235 25.4553 24.1229 25.9912 24.1229C26.5031 24.1229 26.8487 24.5063 26.8487 25.0112C26.8487 25.5162 26.5031 25.8996 25.9912 25.8996C25.4553 25.8996 25.1274 25.4989 25.1274 25.0112ZM27.4323 23.6239V25.0112V26.3986H26.8133V26.0617C26.6163 26.3115 26.3191 26.4684 25.9141 26.4684C25.1158 26.4684 24.49 25.8591 24.49 25.0112C24.49 24.1641 25.1158 23.5541 25.9141 23.5541C26.3191 23.5541 26.6163 23.7109 26.8133 23.9608V23.6239H27.4323ZM21.6315 25.0112C21.6315 25.8531 22.2328 26.4684 23.1504 26.4684C23.5792 26.4684 23.8648 26.3753 24.1743 26.1375L23.8771 25.6498C23.6446 25.8126 23.4006 25.8996 23.132 25.8996C22.6378 25.8936 22.2744 25.5455 22.2744 25.0112C22.2744 24.477 22.6378 24.1289 23.132 24.1229C23.4006 24.1229 23.6446 24.2099 23.8771 24.3727L24.1743 23.885C23.8648 23.6472 23.5792 23.5541 23.1504 23.5541C22.2328 23.5541 21.6315 24.1694 21.6315 25.0112ZM28.8617 23.9608C29.0226 23.7169 29.2551 23.5541 29.6123 23.5541C29.7377 23.5541 29.9164 23.5774 30.0534 23.6299L29.8625 24.1986C29.7316 24.1462 29.6007 24.1289 29.4753 24.1289C29.0703 24.1289 28.8679 24.384 28.8679 24.8431V26.3986H28.2482V23.6239H28.8617V23.9608ZM13.0188 23.8445C12.7209 23.6531 12.3105 23.5541 11.8578 23.5541C11.1366 23.5541 10.6723 23.891 10.6723 24.4425C10.6723 24.895 11.0179 25.174 11.6547 25.2611L11.9471 25.3016C12.2866 25.3481 12.4468 25.4352 12.4468 25.592C12.4468 25.8066 12.2205 25.9288 11.7978 25.9288C11.369 25.9288 11.0595 25.7953 10.8509 25.6385L10.5592 26.1082C10.8986 26.3521 11.3274 26.4684 11.7917 26.4684C12.6138 26.4684 13.0904 26.091 13.0904 25.5627C13.0904 25.075 12.7154 24.8199 12.0957 24.7328L11.804 24.6917C11.536 24.6571 11.3213 24.6053 11.3213 24.4192C11.3213 24.2159 11.5238 24.0943 11.8633 24.0943C12.2266 24.0943 12.5784 24.2279 12.7509 24.3322L13.0188 23.8445ZM20.2559 23.9608C20.4161 23.7169 20.6486 23.5541 21.0058 23.5541C21.1312 23.5541 21.3098 23.5774 21.4468 23.6299L21.256 24.1986C21.1251 24.1462 20.9942 24.1289 20.8687 24.1289C20.4638 24.1289 20.2613 24.384 20.2613 24.8431V26.3986H19.6423V23.6239H20.2559V23.9608ZM15.7231 23.6239H14.7107V22.7821H14.0849V23.6239H13.5075V24.1754H14.0849V25.4411C14.0849 26.085 14.3412 26.4684 15.0734 26.4684C15.342 26.4684 15.6515 26.3873 15.8478 26.2537L15.6692 25.7368C15.4845 25.8411 15.282 25.8936 15.1211 25.8936C14.8116 25.8936 14.7107 25.7076 14.7107 25.4292V24.1754H15.7231V23.6239ZM6.46751 24.6571V26.3986H5.8417V24.8544C5.8417 24.384 5.63923 24.1229 5.21657 24.1229C4.8055 24.1229 4.51986 24.3787 4.51986 24.8604V26.3986H3.89405V24.8544C3.89405 24.384 3.68613 24.1229 3.27505 24.1229C2.85171 24.1229 2.57766 24.3787 2.57766 24.8604V26.3986H1.95253L1.95253 23.6239H2.57221V23.9661C2.80467 23.6412 3.1019 23.5541 3.40594 23.5541C3.84087 23.5541 4.15037 23.7402 4.34671 24.0478C4.60916 23.6585 4.98411 23.5482 5.34746 23.5541C6.03872 23.5601 6.46751 24.0013 6.46751 24.6571Z" fill="white"/>
<path d="M22.1953 18.9092H12.8136V2.47635H22.1953V18.9092Z" fill="#FF5F00"/>
<path d="M13.4088 10.6931C13.4088 7.35961 15.0101 4.39025 17.5038 2.47668C15.6802 1.07738 13.3788 0.242186 10.8776 0.242186C4.95619 0.242186 0.15625 4.92113 0.15625 10.6931C0.15625 16.465 4.95619 21.144 10.8776 21.144C13.3788 21.144 15.6802 20.3088 17.5038 18.9095C15.0101 16.9959 13.4088 14.0265 13.4088 10.6931Z" fill="#EB001B"/>
<path d="M34.8521 10.6931C34.8521 16.465 30.0521 21.144 24.1307 21.144C21.6295 21.144 19.3281 20.3088 17.5038 18.9095C19.9982 16.9959 21.5995 14.0265 21.5995 10.6931C21.5995 7.35961 19.9982 4.39025 17.5038 2.47668C19.3281 1.07738 21.6295 0.242186 24.1307 0.242186C30.0521 0.242186 34.8521 4.92113 34.8521 10.6931Z" fill="#F79E1B"/>
</svg>
