<svg width="18" height="16" viewBox="0 0 18 16" fill="none" xmlns="http://www.w3.org/2000/svg">
<path d="M17.3333 6.41678C17.4166 6.00011 17.0833 5.50011 16.6666 5.50011L11.9166 4.83344L9.74996 0.500111C9.66663 0.333445 9.58329 0.250111 9.41663 0.166778C8.99996 -0.0832219 8.49996 0.0834448 8.24996 0.500111L6.16663 4.83344L1.41663 5.50011C1.16663 5.50011 0.999959 5.58344 0.916626 5.75011C0.583293 6.08344 0.583293 6.58344 0.916626 6.91678L4.33329 10.2501L3.49996 15.0001C3.49996 15.1668 3.49996 15.3334 3.58329 15.5001C3.83329 15.9168 4.33329 16.0834 4.74996 15.8334L8.99996 13.5834L13.25 15.8334C13.3333 15.9168 13.5 15.9168 13.6666 15.9168C13.75 15.9168 13.75 15.9168 13.8333 15.9168C14.25 15.8334 14.5833 15.4168 14.5 14.9168L13.6666 10.1668L17.0833 6.83344C17.25 6.75011 17.3333 6.58344 17.3333 6.41678Z" fill="#FF922E"/>
</svg>
