<svg width="35" height="24" viewBox="0 0 35 24" fill="none" xmlns="http://www.w3.org/2000/svg">
<rect x="1.10938" y="1.31844" width="32.5469" height="21.7871" rx="3.5" fill="#006FCF" stroke="#F3F3F3"/>
<path fill-rule="evenodd" clip-rule="evenodd" d="M7.47105 17.2785V12.5875H12.8638L13.4424 13.2822L14.0401 12.5875H33.6145V16.955C33.6145 16.955 33.1026 17.2738 32.5106 17.2785H21.6718L21.0195 16.539V17.2785H18.8818V16.0162C18.8818 16.0162 18.5898 16.1924 17.9585 16.1924H17.2309V17.2785H13.9944L13.4166 16.5689L12.83 17.2785H7.47105ZM1.18774 9.05189L2.40108 6.44063H4.49941L5.18799 7.90335V6.44063H7.7964L8.20632 7.49784L8.60371 6.44063H20.3128V6.97212C20.3128 6.97212 20.9283 6.44063 21.9399 6.44063L25.7391 6.45289L26.4158 7.89646V6.44063H28.5987L29.1994 7.26985V6.44063H31.4023V11.1316H29.1994L28.6237 10.2997V11.1316H25.4166L25.0941 10.3922H24.2319L23.9146 11.1316H21.7397C20.8692 11.1316 20.3128 10.611 20.3128 10.611V11.1316H17.0335L16.3827 10.3922V11.1316H4.18855L3.86625 10.3922H3.00682L2.68681 11.1316H1.18774V9.05189ZM1.19407 10.5314L2.83059 7.01889H4.07128L5.70623 10.5314H4.61731L4.31691 9.82801H2.56149L2.25953 10.5314H1.19407ZM3.97121 9.06546L3.43613 7.83638L2.89949 9.06546H3.97121ZM5.81884 10.5308V7.01835L7.33292 7.02354L8.21355 9.28817L9.0731 7.01835H10.5751V10.5308H9.62383V7.94269L8.61548 10.5308H7.78124L6.77009 7.94269V10.5308H5.81884ZM11.2259 10.5308V7.01835H14.33V7.80404H12.1872V8.40486H14.2799V9.14433H12.1872V9.76826H14.33V10.5308H11.2259ZM14.8806 10.5314V7.01889H16.9975C17.6989 7.01889 18.3273 7.41927 18.3273 8.15842C18.3273 8.79029 17.7975 9.19729 17.2838 9.2373L18.5354 10.5314H17.373L16.2324 9.28352H15.8319V10.5314H14.8806ZM16.9193 7.80455H15.832V8.54402H16.9334C17.1241 8.54402 17.3699 8.40763 17.3699 8.17428C17.3699 7.9929 17.1802 7.80455 16.9193 7.80455ZM19.687 10.5308H18.7157V7.01835H19.687V10.5308ZM21.99 10.5308H21.7803C20.7659 10.5308 20.1501 9.7931 20.1501 8.78904C20.1501 7.76016 20.759 7.01835 22.04 7.01835H23.0914V7.85025H22.0016C21.4816 7.85025 21.1138 8.22487 21.1138 8.7977C21.1138 9.47794 21.5343 9.76363 22.1402 9.76363H22.3905L21.99 10.5308ZM22.4235 10.5314L24.06 7.01889H25.3007L26.9356 10.5314H25.8467L25.5463 9.82801H23.7909L23.4889 10.5314H22.4235ZM25.2006 9.06546L24.6656 7.83638L24.1289 9.06546H25.2006ZM27.0467 10.5308V7.01835H28.2561L29.8003 9.22521V7.01835H30.7515V10.5308H29.5812L27.9979 8.26621V10.5308H27.0467ZM8.12185 16.6777V13.1652H11.2259V13.9509H9.08311V14.5517H11.1759V15.2912H9.08311V15.9151H11.2259V16.6777H8.12185ZM23.3318 16.6777V13.1652H26.4359V13.9509H24.293V14.5517H26.3758V15.2912H24.293V15.9151H26.4359V16.6777H23.3318ZM11.3463 16.6777L12.8577 14.9431L11.3103 13.1652H12.5088L13.4303 14.2643L14.355 13.1652H15.5065L13.9795 14.9214L15.4936 16.6777H14.2954L13.4006 15.5959L12.5276 16.6777H11.3463ZM15.6067 16.6782V13.1657H17.7079C18.5701 13.1657 19.0738 13.6787 19.0738 14.3472C19.0738 15.1541 18.4316 15.569 17.5843 15.569H16.583V16.6782H15.6067ZM17.6374 13.9601H16.5829V14.7689H17.6343C17.9121 14.7689 18.1068 14.5989 18.1068 14.3645C18.1068 14.115 17.9111 13.9601 17.6374 13.9601ZM19.4868 16.6777V13.1652H21.6036C22.305 13.1652 22.9335 13.5656 22.9335 14.3047C22.9335 14.9366 22.4036 15.3436 21.89 15.3836L23.1416 16.6777H21.9791L20.8386 15.4298H20.4381V16.6777H19.4868ZM21.5255 13.9509H20.4381V14.6903H21.5395C21.7302 14.6903 21.9761 14.5539 21.9761 14.3206C21.9761 14.1392 21.7863 13.9509 21.5255 13.9509ZM26.8764 16.6777V15.9151H28.7801C29.0618 15.9151 29.1838 15.7746 29.1838 15.6205C29.1838 15.4728 29.0622 15.3235 28.7801 15.3235H27.9198C27.172 15.3235 26.7556 14.903 26.7556 14.2715C26.7556 13.7083 27.137 13.1652 28.2482 13.1652H30.1006L29.7001 13.9555H28.098C27.7917 13.9555 27.6974 14.1039 27.6974 14.2455C27.6974 14.3911 27.8139 14.5517 28.0479 14.5517H28.9491C29.7827 14.5517 30.1444 14.9882 30.1444 15.5598C30.1444 16.1744 29.7413 16.6777 28.9037 16.6777H26.8764ZM30.2284 16.6777V15.9151H32.1321C32.4138 15.9151 32.5357 15.7746 32.5357 15.6205C32.5357 15.4728 32.4142 15.3235 32.1321 15.3235H31.2718C30.524 15.3235 30.1076 14.903 30.1076 14.2715C30.1076 13.7083 30.4889 13.1652 31.6001 13.1652H33.4526L33.052 13.9555H31.45C31.1437 13.9555 31.0494 14.1039 31.0494 14.2455C31.0494 14.3911 31.1659 14.5517 31.3999 14.5517H32.3011C33.1347 14.5517 33.4964 14.9882 33.4964 15.5598C33.4964 16.1744 33.0933 16.6777 32.2557 16.6777H30.2284Z" fill="white"/>
</svg>
