<svg width="20" height="20" viewBox="0 0 20 20" fill="none" xmlns="http://www.w3.org/2000/svg">
<path d="M9.75252 4.67969C9.77681 3.926 9.98441 2.81572 10.7069 2.08632C11.3776 1.40925 12.194 1.07927 12.7025 0.928409C12.8988 0.870169 13.0872 1.0182 13.0775 1.22275C13.0435 1.94425 12.8537 3.0204 12.3643 3.59692C11.9028 4.14039 11.1606 4.86107 10.0733 4.98232C9.89535 5.00217 9.74675 4.85866 9.75252 4.67969Z" fill="white"/>
<path d="M11.6142 18.4746C12.1363 18.6746 12.6642 18.8768 13.1419 18.8768C14.1639 18.8768 17.1398 16.5189 17.247 14.0699C17.2525 13.9441 17.1774 13.8317 17.0675 13.7703C16.3106 13.3467 15.0744 12.2919 15.0314 10.7575C14.9813 8.96929 15.8791 7.54898 16.5586 6.96146C16.7116 6.82923 16.7641 6.59608 16.6276 6.44698C16.0093 5.77181 14.7655 4.84309 13.6307 4.86589C12.8051 4.88248 12.0612 5.19002 11.4229 5.45392C10.9332 5.65639 10.5056 5.83317 10.1508 5.83317C9.81486 5.83317 9.41152 5.65752 8.94859 5.45593C8.32516 5.18444 7.59367 4.86589 6.77311 4.86589C5.25316 4.86589 2.25001 6.12629 2.25 10.992C2.25 13.5714 4.9128 18.9452 7.15976 18.8768C7.64495 18.8768 8.16348 18.6759 8.67802 18.4765C9.18471 18.2802 9.68753 18.0854 10.1508 18.0854C10.5982 18.0854 11.1034 18.2789 11.6142 18.4746Z" fill="white"/>
</svg>
