<svg width="21" height="16" viewBox="0 0 21 16" fill="none" xmlns="http://www.w3.org/2000/svg">
<path d="M15.3658 8.28641C15.8834 8.298 16.4038 8.26286 16.9193 8.30467C17.4413 8.40503 17.5671 9.21946 17.1033 9.48618C16.7869 9.6619 16.411 9.55163 16.0679 9.58263H15.3658V8.28641ZM17.2185 6.81927C17.3335 7.23753 16.9422 7.61306 16.5514 7.55546H15.3658C15.3742 7.16103 15.3496 6.73291 15.3779 6.35925C15.8528 6.37303 16.3321 6.33113 16.8043 6.38116C17.0072 6.43369 17.177 6.60558 17.2185 6.81927ZM20.0717 0.616606C20.0937 1.41538 20.0749 2.25636 20.0812 3.07134C20.0797 6.38472 20.0843 9.69801 20.0787 13.0116C20.0578 14.2533 18.99 15.3323 17.7934 15.3571C16.5957 15.3621 15.3978 15.3579 14.1999 15.3593V10.3501C15.5051 10.3432 16.8109 10.3642 18.1155 10.3396C18.7207 10.3005 19.3837 9.88892 19.4118 9.20252C19.4831 8.51316 18.8525 8.03634 18.2537 7.96103C18.0235 7.95487 18.0303 7.89189 18.2537 7.86441C18.8248 7.73721 19.2732 7.12808 19.1052 6.51803C18.962 5.87641 18.2739 5.62807 17.7015 5.62931C16.5345 5.62114 15.3672 5.62817 14.2002 5.62579C14.2077 4.69065 14.1844 3.7545 14.2127 2.82003C14.3052 1.60068 15.3999 0.595109 16.5796 0.616926C17.7438 0.616743 18.9078 0.616743 20.0717 0.616698V0.616606Z" fill="url(#paint0_linear_1_9487)"/>
<path d="M1.01151 2.94643C1.04132 1.70663 2.11372 0.636474 3.30875 0.618354C4.50205 0.614566 5.69554 0.617807 6.88884 0.616712C6.88556 4.76483 6.89531 8.9134 6.88393 13.0613C6.83796 14.286 5.77725 15.3358 4.59523 15.3575C3.39967 15.3619 2.20397 15.3581 1.00837 15.3593V10.1813C2.1697 10.4641 3.38754 10.5844 4.57229 10.3969C5.28048 10.2794 6.05532 9.92103 6.29509 9.16384C6.47153 8.51614 6.37219 7.83449 6.39846 7.16972V5.6259H4.34811C4.3389 6.64694 4.36698 7.66977 4.33328 8.68958C4.27801 9.31642 3.67567 9.71468 3.10202 9.69341C2.3906 9.70117 0.98082 9.16206 0.98082 9.16206C0.977277 7.24904 1.00146 4.85328 1.01151 2.94661V2.94643Z" fill="url(#paint1_linear_1_9487)"/>
<path d="M7.65348 6.24859C7.54555 6.27219 7.63178 5.86972 7.60419 5.71705C7.61154 4.75173 7.58882 3.78537 7.61672 2.82074C7.70893 1.59623 8.81205 0.588145 9.99658 0.616807H13.4849C13.4817 4.76493 13.4914 8.9135 13.48 13.0614C13.434 14.2861 12.3732 15.3358 11.1912 15.3576C9.99556 15.3622 8.79983 15.3583 7.60414 15.3595V9.68625C8.42074 10.3768 9.5306 10.4842 10.5479 10.4861C11.3149 10.4858 12.0774 10.364 12.8222 10.1817V9.14234C11.9828 9.57347 10.9961 9.84732 10.0657 9.59963C9.41661 9.43313 8.94545 8.78666 8.95594 8.09633C8.88074 7.37844 9.28906 6.62052 9.9736 6.4071C10.8235 6.13289 11.7498 6.34261 12.5465 6.69912C12.7171 6.79122 12.8904 6.90546 12.8221 6.61144V5.7945C11.4897 5.4678 10.0718 5.34758 8.73318 5.70299C8.34572 5.81564 7.96822 5.98647 7.65348 6.24868V6.24859Z" fill="url(#paint2_linear_1_9487)"/>
<defs>
<linearGradient id="paint0_linear_1_9487" x1="14.1597" y1="7.67273" x2="20.0441" y2="7.67273" gradientUnits="userSpaceOnUse">
<stop stop-color="#007B40"/>
<stop offset="1" stop-color="#55B330"/>
</linearGradient>
<linearGradient id="paint1_linear_1_9487" x1="0.883252" y1="8.1292" x2="6.79243" y2="8.1292" gradientUnits="userSpaceOnUse">
<stop stop-color="#1D2970"/>
<stop offset="1" stop-color="#006DBA"/>
</linearGradient>
<linearGradient id="paint2_linear_1_9487" x1="7.59552" y1="7.81575" x2="13.4838" y2="7.81575" gradientUnits="userSpaceOnUse">
<stop stop-color="#6E2B2F"/>
<stop offset="1" stop-color="#E30138"/>
</linearGradient>
</defs>
</svg>
