<svg width="23" height="23" viewBox="0 0 23 23" fill="none" xmlns="http://www.w3.org/2000/svg">
<path d="M8.38542 9.58333C8.38542 7.8632 9.77986 6.46875 11.5 6.46875C13.2201 6.46875 14.6146 7.8632 14.6146 9.58333C14.6146 11.3035 13.2201 12.6979 11.5 12.6979C9.77986 12.6979 8.38542 11.3035 8.38542 9.58333Z" fill="#0079F0"/>
<path fill-rule="evenodd" clip-rule="evenodd" d="M3.61631 8.5075C3.94563 4.51226 7.28427 1.4375 11.2931 1.4375H11.707C15.7158 1.4375 19.0544 4.51226 19.3837 8.5075C19.561 10.6586 18.8966 12.7945 17.5303 14.4654L12.937 20.0829C12.1943 20.9912 10.8057 20.9912 10.0631 20.0829L5.46971 14.4654C4.10346 12.7945 3.439 10.6586 3.61631 8.5075ZM11.5 5.03125C8.98595 5.03125 6.94792 7.06929 6.94792 9.58333C6.94792 12.0974 8.98595 14.1354 11.5 14.1354C14.014 14.1354 16.0521 12.0974 16.0521 9.58333C16.0521 7.06929 14.014 5.03125 11.5 5.03125Z" fill="#0079F0"/>
</svg>
