<svg width="27" height="21" viewBox="0 0 27 21" fill="none" xmlns="http://www.w3.org/2000/svg">
<path fill-rule="evenodd" clip-rule="evenodd" d="M7.86702 17.8495V18.9063V19.963H7.40495V19.7064C7.25839 19.8967 7.03601 20.0161 6.73373 20.0161C6.13782 20.0161 5.67067 19.552 5.67067 18.9063C5.67067 18.261 6.13782 17.7964 6.73373 17.7964C7.03601 17.7964 7.25839 17.9158 7.40495 18.1061V17.8495H7.86702ZM6.79122 18.2296C6.39124 18.2296 6.14647 18.5348 6.14647 18.9062C6.14647 19.2777 6.39124 19.5829 6.79122 19.5829C7.17339 19.5829 7.43139 19.2909 7.43139 18.9062C7.43139 18.5216 7.17339 18.2296 6.79122 18.2296ZM23.4816 18.9062C23.4816 18.5348 23.7264 18.2296 24.1264 18.2296C24.5091 18.2296 24.7666 18.5216 24.7666 18.9062C24.7666 19.2909 24.5091 19.5829 24.1264 19.5829C23.7264 19.5829 23.4816 19.2777 23.4816 18.9062ZM25.2027 17.0008V18.9063V19.963H24.7401V19.7064C24.5935 19.8967 24.3712 20.0161 24.0689 20.0161C23.473 20.0161 23.0058 19.552 23.0058 18.9063C23.0058 18.261 23.473 17.7964 24.0689 17.7964C24.3712 17.7964 24.5935 17.9158 24.7401 18.1061V17.0008H25.2027ZM13.6026 18.2078C13.9003 18.2078 14.0917 18.3936 14.1405 18.7205H13.0378C13.0872 18.4153 13.2734 18.2078 13.6026 18.2078ZM12.5533 18.9063C12.5533 18.2473 12.9889 17.7964 13.6118 17.7964C14.2072 17.7964 14.6163 18.2473 14.6209 18.9063C14.6209 18.968 14.6163 19.0257 14.6118 19.0829H13.0337C13.1004 19.4635 13.3716 19.6006 13.6693 19.6006C13.8825 19.6006 14.1095 19.5206 14.2876 19.3794L14.5141 19.72C14.2561 19.9367 13.9629 20.0161 13.6428 20.0161C13.0067 20.0161 12.5533 19.5783 12.5533 18.9063ZM19.1912 18.9062C19.1912 18.5348 19.436 18.2296 19.836 18.2296C20.2182 18.2296 20.4762 18.5216 20.4762 18.9062C20.4762 19.2909 20.2182 19.5829 19.836 19.5829C19.436 19.5829 19.1912 19.2777 19.1912 18.9062ZM20.9118 17.8495V18.9063V19.963H20.4497V19.7064C20.3026 19.8967 20.0808 20.0161 19.7785 20.0161C19.1826 20.0161 18.7154 19.552 18.7154 18.9063C18.7154 18.261 19.1826 17.7964 19.7785 17.7964C20.0808 17.7964 20.3026 17.9158 20.4497 18.1061V17.8495H20.9118ZM16.5816 18.9063C16.5816 19.5475 17.0305 20.0161 17.7154 20.0161C18.0355 20.0161 18.2487 19.9453 18.4798 19.7641L18.2579 19.3926C18.0844 19.5166 17.9022 19.5829 17.7017 19.5829C17.3327 19.5783 17.0615 19.3131 17.0615 18.9063C17.0615 18.4994 17.3327 18.2342 17.7017 18.2296C17.9022 18.2296 18.0844 18.2959 18.2579 18.4199L18.4798 18.0484C18.2487 17.8672 18.0355 17.7964 17.7154 17.7964C17.0305 17.7964 16.5816 18.265 16.5816 18.9063ZM21.9788 18.1061C22.0989 17.9204 22.2724 17.7964 22.5391 17.7964C22.6327 17.7964 22.7661 17.8141 22.8684 17.8541L22.7259 18.2873C22.6282 18.2473 22.5305 18.2342 22.4368 18.2342C22.1345 18.2342 21.9834 18.4285 21.9834 18.7782V19.963H21.5208V17.8495H21.9788V18.1061ZM10.1524 18.0176C9.93 17.8718 9.62365 17.7964 9.28575 17.7964C8.74735 17.7964 8.4008 18.053 8.4008 18.473C8.4008 18.8177 8.6588 19.0302 9.1341 19.0965L9.35241 19.1274C9.60584 19.1628 9.72542 19.2291 9.72542 19.3486C9.72542 19.512 9.55647 19.6052 9.24097 19.6052C8.92088 19.6052 8.68985 19.5034 8.53413 19.384L8.31632 19.7418C8.56975 19.9275 8.88984 20.0161 9.23639 20.0161C9.8501 20.0161 10.2058 19.7287 10.2058 19.3263C10.2058 18.9548 9.92592 18.7605 9.46335 18.6942L9.24555 18.6628C9.04556 18.6365 8.88526 18.597 8.88526 18.4553C8.88526 18.3005 9.0364 18.2078 9.28982 18.2078C9.56105 18.2078 9.82364 18.3096 9.95239 18.389L10.1524 18.0176ZM15.5547 18.1061C15.6743 17.9204 15.8478 17.7964 16.1145 17.7964C16.2081 17.7964 16.3415 17.8141 16.4438 17.8541L16.3013 18.2873C16.2036 18.2473 16.1059 18.2342 16.0122 18.2342C15.7099 18.2342 15.5588 18.4285 15.5588 18.7782V19.963H15.0967V17.8495H15.5547V18.1061ZM12.1711 17.8495H11.4154V17.2083H10.9482V17.8495H10.5172V18.2696H10.9482V19.2337C10.9482 19.7241 11.1396 20.0161 11.6861 20.0161C11.8866 20.0161 12.1176 19.9544 12.2642 19.8526L12.1309 19.4589C11.993 19.5384 11.8418 19.5783 11.7217 19.5783C11.4907 19.5783 11.4154 19.4366 11.4154 19.2246V18.2696H12.1711V17.8495ZM5.262 18.6365V19.963H4.79485V18.7868C4.79485 18.4285 4.64371 18.2296 4.3282 18.2296C4.02134 18.2296 3.80812 18.4245 3.80812 18.7914V19.963H3.34096V18.7868C3.34096 18.4285 3.18576 18.2296 2.8789 18.2296C2.56288 18.2296 2.35831 18.4245 2.35831 18.7914V19.963H1.89166L1.89166 17.8495H2.35424L2.35424 18.1102C2.52777 17.8627 2.74964 17.7964 2.9766 17.7964C3.30127 17.7964 3.53231 17.9381 3.67886 18.1724C3.87478 17.8759 4.15467 17.7918 4.42591 17.7964C4.94191 17.8009 5.262 18.137 5.262 18.6365Z" fill="#231F20"/>
<path d="M17.0025 14.2584H9.99921V1.7417H17.0025V14.2584Z" fill="#FF5F00"/>
<path d="M10.4435 8.00037C10.4435 5.46131 11.6389 3.19958 13.5004 1.74203C12.1391 0.676205 10.4211 0.0400467 8.554 0.0400467C4.13384 0.0400467 0.550781 3.60395 0.550781 8.00037C0.550781 12.3968 4.13384 15.9607 8.554 15.9607C10.4211 15.9607 12.1391 15.3245 13.5004 14.2587C11.6389 12.8012 10.4435 10.5394 10.4435 8.00037Z" fill="#EB001B"/>
<path d="M26.4505 8.00037C26.4505 12.3968 22.8674 15.9607 18.4472 15.9607C16.5801 15.9607 14.8621 15.3245 13.5004 14.2587C15.3624 12.8012 16.5577 10.5394 16.5577 8.00037C16.5577 5.46131 15.3624 3.19958 13.5004 1.74203C14.8621 0.676205 16.5801 0.0400467 18.4472 0.0400467C22.8674 0.0400467 26.4505 3.60395 26.4505 8.00037Z" fill="#F79E1B"/>
</svg>
