<svg width="27" height="20" viewBox="0 0 27 20" fill="none" xmlns="http://www.w3.org/2000/svg">
<path d="M16.972 14.2326H9.98157V1.73877H16.972V14.2326Z" fill="#6C6BBD"/>
<path d="M10.4254 7.98586C10.4254 5.45144 11.6186 3.19384 13.4767 1.73896C12.1179 0.67508 10.4031 0.0400848 8.53938 0.0400848C4.12729 0.0400848 0.550781 3.59747 0.550781 7.98586C0.550781 12.3743 4.12729 15.9316 8.53938 15.9316C10.4031 15.9316 12.1179 15.2966 13.4767 14.2328C11.6186 12.7779 10.4254 10.5203 10.4254 7.98586Z" fill="#EB001B"/>
<path d="M26.403 7.98586C26.403 12.3743 22.8265 15.9316 18.4144 15.9316C16.5507 15.9316 14.8358 15.2966 13.4766 14.2328C15.3352 12.7779 16.5284 10.5203 16.5284 7.98586C16.5284 5.45144 15.3352 3.19384 13.4766 1.73896C14.8358 0.67508 16.5507 0.0400848 18.4144 0.0400848C22.8265 0.0400848 26.403 3.59747 26.403 7.98586Z" fill="#0099DF"/>
<path d="M19.3372 17.7629C19.4302 17.7629 19.5638 17.7806 19.6659 17.8205L19.5236 18.2529C19.4261 18.213 19.3286 18.1999 19.2351 18.1999C18.9334 18.1999 18.7825 18.3939 18.7825 18.7424V19.9255H18.3208V17.816H18.778V18.0721C18.8978 17.8867 19.071 17.7629 19.3372 17.7629Z" fill="#231F20"/>
<path d="M17.6316 18.2352H16.8773V19.1884C16.8773 19.4001 16.9524 19.5415 17.1835 19.5415C17.3034 19.5415 17.4543 19.5016 17.5914 19.4223L17.7245 19.8148C17.5782 19.9164 17.3476 19.9785 17.148 19.9785C16.6019 19.9785 16.4115 19.687 16.4115 19.197V18.2352H15.9807V17.8159H16.4115V17.1758H16.8773V17.8159H17.6316V18.2352Z" fill="#231F20"/>
<path fill-rule="evenodd" clip-rule="evenodd" d="M12.2971 17.7629C12.8919 17.7629 13.3003 18.213 13.3049 18.8708C13.3049 18.9319 13.3004 18.9886 13.2959 19.0457L13.2958 19.0471H11.7206C11.7871 19.4265 12.0579 19.5634 12.355 19.5634C12.5679 19.5634 12.7944 19.484 12.9717 19.3426L13.1982 19.6826C12.9407 19.8988 12.6481 19.9781 12.3286 19.9781C11.6937 19.9781 11.2411 19.5411 11.2411 18.8708C11.2411 18.213 11.6759 17.7629 12.2971 17.7629ZM12.2885 18.1731C11.9598 18.1731 11.7739 18.3808 11.7246 18.6854H12.8254C12.7766 18.3585 12.5856 18.1731 12.2885 18.1731Z" fill="#231F20"/>
<path d="M15.3325 18.3544C15.204 18.2746 14.9424 18.173 14.6717 18.173C14.4187 18.173 14.2679 18.266 14.2679 18.4206C14.2679 18.5615 14.4274 18.6014 14.627 18.6277L14.8444 18.6585C15.3061 18.7252 15.5855 18.9192 15.5855 19.29C15.5855 19.6916 15.2304 19.9785 14.6184 19.9785C14.2719 19.9785 13.9524 19.8901 13.6995 19.7047L13.9169 19.3471C14.0723 19.4663 14.3034 19.5678 14.6229 19.5678C14.9379 19.5678 15.1065 19.4754 15.1065 19.3117C15.1065 19.193 14.9866 19.1263 14.7337 19.0914L14.5163 19.0606C14.0413 18.9939 13.7838 18.7823 13.7838 18.4383C13.7838 18.019 14.1302 17.7628 14.6671 17.7628C15.0044 17.7628 15.3107 17.8381 15.5322 17.9836L15.3325 18.3544Z" fill="#231F20"/>
<path fill-rule="evenodd" clip-rule="evenodd" d="M21.4813 17.8483C21.3411 17.7912 21.1887 17.7629 21.0241 17.7629C20.8595 17.7629 20.7071 17.7912 20.5669 17.8483C20.4267 17.9049 20.3064 17.9832 20.2048 18.0827C20.1032 18.1822 20.0234 18.2999 19.9655 18.4353C19.9076 18.5712 19.8787 18.7187 19.8787 18.8778C19.8787 19.037 19.9076 19.1845 19.9655 19.3204C20.0234 19.4558 20.1032 19.574 20.2048 19.6735C20.3064 19.773 20.4267 19.8508 20.5669 19.9079C20.7071 19.9645 20.8595 19.9927 21.0241 19.9927C21.1887 19.9927 21.3411 19.9645 21.4813 19.9079C21.6215 19.8508 21.7429 19.773 21.845 19.6735C21.9476 19.574 22.0273 19.4558 22.0852 19.3204C22.1431 19.1845 22.1721 19.037 22.1721 18.8778C22.1721 18.7187 22.1431 18.5712 22.0852 18.4353C22.0273 18.2999 21.9476 18.1822 21.845 18.0827C21.7429 17.9832 21.6215 17.9049 21.4813 17.8483ZM20.7594 18.2484C20.8412 18.2156 20.9291 18.1989 21.0241 18.1989C21.119 18.1989 21.2074 18.2156 21.2887 18.2484C21.3705 18.2817 21.4416 18.3282 21.501 18.3878C21.5615 18.4474 21.6082 18.5192 21.6427 18.6025C21.6768 18.6859 21.6935 18.7778 21.6935 18.8778C21.6935 18.9784 21.6768 19.0698 21.6427 19.1531C21.6082 19.2365 21.5615 19.3082 21.501 19.3678C21.4416 19.4275 21.3705 19.4739 21.2887 19.5073C21.2074 19.5406 21.119 19.5568 21.0241 19.5568C20.9291 19.5568 20.8412 19.5406 20.7594 19.5073C20.6781 19.4739 20.6075 19.4275 20.5481 19.3678C20.4887 19.3082 20.4419 19.2365 20.4079 19.1531C20.3739 19.0698 20.3571 18.9784 20.3571 18.8778C20.3571 18.7778 20.3739 18.6859 20.4079 18.6025C20.4419 18.5192 20.4887 18.4474 20.5481 18.3878C20.6075 18.3282 20.6781 18.2817 20.7594 18.2484Z" fill="#231F20"/>
<path fill-rule="evenodd" clip-rule="evenodd" d="M10.7458 17.816V18.8708V19.9256H10.2846V19.6694C10.1378 19.8594 9.91629 19.9786 9.61456 19.9786C9.01975 19.9786 8.55396 19.5149 8.55396 18.8708C8.55396 18.2262 9.01975 17.7629 9.61456 17.7629C9.91629 17.7629 10.1378 17.8822 10.2846 18.0721V17.816H10.7458ZM9.67194 18.1953C9.27269 18.1953 9.02836 18.5 9.02836 18.8708C9.02836 19.2415 9.27269 19.5457 9.67194 19.5457C10.0534 19.5457 10.3109 19.2547 10.3109 18.8708C10.3109 18.4868 10.0534 18.1953 9.67194 18.1953Z" fill="#231F20"/>
<path d="M8.14565 19.9255V18.6015C8.14565 18.1029 7.82615 17.7675 7.31159 17.7629C7.04085 17.7584 6.76097 17.8422 6.56592 18.1383C6.41963 17.9044 6.18851 17.7629 5.86443 17.7629C5.63839 17.7629 5.41642 17.8291 5.2432 18.0761V17.816H4.78198V19.9255H5.24778V18.7561C5.24778 18.3898 5.45197 18.1953 5.7669 18.1953C6.0732 18.1953 6.22863 18.3939 6.22863 18.7515V19.9255H6.69443V18.7561C6.69443 18.3898 6.90777 18.1953 7.21356 18.1953C7.529 18.1953 7.67986 18.3939 7.67986 18.7515V19.9255H8.14565V19.9255Z" fill="#231F20"/>
</svg>
