<svg width="17" height="17" viewBox="0 0 17 17" fill="none" xmlns="http://www.w3.org/2000/svg">
<path fill-rule="evenodd" clip-rule="evenodd" d="M4.4271 3.89583C4.4271 2.62443 5.45778 1.59375 6.72919 1.59375C7.44122 1.59375 8.07775 1.91701 8.50002 2.42478C8.9223 1.91701 9.55882 1.59375 10.2709 1.59375C11.5423 1.59375 12.5729 2.62443 12.5729 3.89583C12.5729 4.4301 12.3909 4.92187 12.0855 5.3125H12.75C13.728 5.3125 14.5209 6.10533 14.5209 7.08333V7.96875C14.5209 8.26215 14.283 8.5 13.9896 8.5H9.24377C9.12641 8.5 9.03127 8.40486 9.03127 8.2875V5.83602C8.83085 5.70771 8.65163 5.54919 8.50002 5.36689C8.34842 5.54919 8.16919 5.70771 7.96877 5.83602V8.2875C7.96877 8.40486 7.87363 8.5 7.75627 8.5H3.01044C2.71704 8.5 2.47919 8.26215 2.47919 7.96875V7.08333C2.47919 6.10533 3.27202 5.3125 4.25002 5.3125H4.91449C4.60911 4.92187 4.4271 4.4301 4.4271 3.89583ZM7.96877 3.89583C7.96877 3.21123 7.41379 2.65625 6.72919 2.65625C6.04458 2.65625 5.4896 3.21123 5.4896 3.89583C5.4896 4.58044 6.04458 5.13542 6.72919 5.13542C7.41379 5.13542 7.96877 4.58044 7.96877 3.89583ZM9.03127 3.89583C9.03127 4.58044 9.58625 5.13542 10.2709 5.13542C10.9555 5.13542 11.5104 4.58044 11.5104 3.89583C11.5104 3.21123 10.9555 2.65625 10.2709 2.65625C9.58625 2.65625 9.03127 3.21123 9.03127 3.89583Z" fill="#0079F0"/>
<path fill-rule="evenodd" clip-rule="evenodd" d="M4.4271 3.89583C4.4271 2.62443 5.45778 1.59375 6.72919 1.59375C7.44122 1.59375 8.07775 1.91701 8.50002 2.42478C8.9223 1.91701 9.55882 1.59375 10.2709 1.59375C11.5423 1.59375 12.5729 2.62443 12.5729 3.89583C12.5729 4.4301 12.3909 4.92187 12.0855 5.3125H12.75C13.728 5.3125 14.5209 6.10533 14.5209 7.08333V7.96875C14.5209 8.26215 14.283 8.5 13.9896 8.5H9.24377C9.12641 8.5 9.03127 8.40486 9.03127 8.2875V5.83602C8.83085 5.70771 8.65163 5.54919 8.50002 5.36689C8.34842 5.54919 8.16919 5.70771 7.96877 5.83602V8.2875C7.96877 8.40486 7.87363 8.5 7.75627 8.5H3.01044C2.71704 8.5 2.47919 8.26215 2.47919 7.96875V7.08333C2.47919 6.10533 3.27202 5.3125 4.25002 5.3125H4.91449C4.60911 4.92187 4.4271 4.4301 4.4271 3.89583ZM7.96877 3.89583C7.96877 3.21123 7.41379 2.65625 6.72919 2.65625C6.04458 2.65625 5.4896 3.21123 5.4896 3.89583C5.4896 4.58044 6.04458 5.13542 6.72919 5.13542C7.41379 5.13542 7.96877 4.58044 7.96877 3.89583ZM9.03127 3.89583C9.03127 4.58044 9.58625 5.13542 10.2709 5.13542C10.9555 5.13542 11.5104 4.58044 11.5104 3.89583C11.5104 3.21123 10.9555 2.65625 10.2709 2.65625C9.58625 2.65625 9.03127 3.21123 9.03127 3.89583Z" fill="url(#paint0_linear_1_9482)"/>
<path d="M7.96877 9.66875C7.96877 9.55139 7.87363 9.45625 7.75627 9.45625H4.00141C3.71407 9.45625 3.46853 9.66329 3.42 9.9465C3.26272 10.8644 3.26272 11.8023 3.42 12.7202L3.57889 13.6474C3.68587 14.2717 4.19293 14.75 4.82244 14.8204L5.5769 14.9047C6.30005 14.9855 7.0257 15.0362 7.752 15.0569C7.87099 15.0603 7.96877 14.9644 7.96877 14.8453L7.96877 9.66875Z" fill="#0079F0"/>
<path d="M7.96877 9.66875C7.96877 9.55139 7.87363 9.45625 7.75627 9.45625H4.00141C3.71407 9.45625 3.46853 9.66329 3.42 9.9465C3.26272 10.8644 3.26272 11.8023 3.42 12.7202L3.57889 13.6474C3.68587 14.2717 4.19293 14.75 4.82244 14.8204L5.5769 14.9047C6.30005 14.9855 7.0257 15.0362 7.752 15.0569C7.87099 15.0603 7.96877 14.9644 7.96877 14.8453L7.96877 9.66875Z" fill="url(#paint1_linear_1_9482)"/>
<path d="M9.24804 15.0569C9.12905 15.0603 9.03127 14.9644 9.03127 14.8453L9.03127 9.66875C9.03127 9.55139 9.12641 9.45625 9.24377 9.45625H12.9986C13.286 9.45625 13.5315 9.66329 13.58 9.9465C13.7373 10.8644 13.7373 11.8023 13.58 12.7202L13.4211 13.6474C13.3142 14.2717 12.8071 14.75 12.1776 14.8204L11.4231 14.9047C10.7 14.9855 9.97434 15.0362 9.24804 15.0569Z" fill="#0079F0"/>
<path d="M9.24804 15.0569C9.12905 15.0603 9.03127 14.9644 9.03127 14.8453L9.03127 9.66875C9.03127 9.55139 9.12641 9.45625 9.24377 9.45625H12.9986C13.286 9.45625 13.5315 9.66329 13.58 9.9465C13.7373 10.8644 13.7373 11.8023 13.58 12.7202L13.4211 13.6474C13.3142 14.2717 12.8071 14.75 12.1776 14.8204L11.4231 14.9047C10.7 14.9855 9.97434 15.0362 9.24804 15.0569Z" fill="url(#paint2_linear_1_9482)"/>
<defs>
<linearGradient id="paint0_linear_1_9482" x1="8.50002" y1="1.59375" x2="8.50002" y2="15.057" gradientUnits="userSpaceOnUse">
<stop stop-color="#FF9900"/>
<stop offset="1" stop-color="#FF630C"/>
</linearGradient>
<linearGradient id="paint1_linear_1_9482" x1="8.50002" y1="1.59375" x2="8.50002" y2="15.057" gradientUnits="userSpaceOnUse">
<stop stop-color="#FF9900"/>
<stop offset="1" stop-color="#FF630C"/>
</linearGradient>
<linearGradient id="paint2_linear_1_9482" x1="8.50002" y1="1.59375" x2="8.50002" y2="15.057" gradientUnits="userSpaceOnUse">
<stop stop-color="#FF9900"/>
<stop offset="1" stop-color="#FF630C"/>
</linearGradient>
</defs>
</svg>
