<svg width="24" height="16" viewBox="0 0 24 16" fill="none" xmlns="http://www.w3.org/2000/svg">
<path d="M4.58775 0.617065H10.3154C11.115 0.617065 11.6122 1.28869 11.4257 2.11541L8.75908 13.9145C8.57089 14.7384 7.77038 15.4106 6.97029 15.4106H1.24317C0.444759 15.4106 -0.0536396 14.7384 0.132876 13.9145L2.80063 2.11541C2.98715 1.28869 3.78724 0.617065 4.58775 0.617065Z" fill="#E21836"/>
<path d="M9.83849 0.616211H16.4252C17.2246 0.616211 16.8641 1.28783 16.676 2.11455L14.0098 13.9137C13.8227 14.7375 13.8811 15.4097 13.08 15.4097H6.49336C5.69229 15.4097 5.19654 14.7375 5.38473 13.9137L8.05082 2.11455C8.24012 1.28783 9.03854 0.616211 9.83849 0.616211Z" fill="#00447C"/>
<path d="M16.164 0.616211H21.8917C22.6923 0.616211 23.1896 1.28783 23.0016 2.11455L20.3354 13.9137C20.1472 14.7375 19.3461 15.4097 18.5456 15.4097H12.8206C12.0195 15.4097 11.5226 14.7375 11.7103 13.9137L14.3769 2.11455C14.5634 1.28783 15.363 0.616211 16.164 0.616211Z" fill="#007B84"/>
<path d="M6.08328 4.39742C5.49427 4.40361 5.32032 4.39742 5.26476 4.3839C5.2434 4.48849 4.84594 6.37804 4.84482 6.37962C4.75924 6.76191 4.69698 7.03441 4.48547 7.21038C4.36541 7.31267 4.22524 7.36202 4.06274 7.36202C3.80153 7.36202 3.64936 7.22836 3.62381 6.97485L3.61893 6.8878C3.61893 6.8878 3.6985 6.37574 3.6985 6.37286C3.6985 6.37286 4.11565 4.65093 4.19034 4.42332C4.19425 4.41037 4.19537 4.40361 4.19634 4.39742C3.38439 4.40476 3.24045 4.39742 3.23054 4.3839C3.2251 4.40246 3.20499 4.50921 3.20499 4.50921L2.77905 6.44998L2.74247 6.61458L2.67169 7.15297C2.67169 7.31267 2.70213 7.44303 2.76272 7.55324C2.95677 7.90272 3.51031 7.95509 3.82345 7.95509C4.22692 7.95509 4.60539 7.86675 4.86115 7.70546C5.30511 7.43511 5.42126 7.01254 5.52485 6.63702L5.57287 6.44437C5.57287 6.44437 6.00258 4.65597 6.0756 4.42332C6.07839 4.41037 6.07951 4.40361 6.08328 4.39742ZM7.54534 5.84014C7.44176 5.84014 7.25245 5.86604 7.08241 5.95193C7.0207 5.98459 6.96234 6.02229 6.90078 6.05984L6.95634 5.85309L6.92591 5.81827C6.5653 5.89352 6.48461 5.90359 6.1515 5.95193L6.12358 5.97107C6.08491 6.30156 6.05057 6.55003 5.90719 7.19964C5.8526 7.43905 5.79592 7.68077 5.7391 7.91961L5.75446 7.94996C6.0958 7.9314 6.19939 7.9314 6.49605 7.93644L6.52007 7.90954C6.55776 7.71055 6.56265 7.66394 6.64613 7.26093C6.68536 7.06986 6.76717 6.65003 6.80752 6.50054C6.88165 6.46515 6.9548 6.43033 7.02461 6.43033C7.19088 6.43033 7.17064 6.57982 7.16422 6.63938C7.1571 6.73938 7.09651 7.06598 7.03438 7.3464L6.99292 7.5274C6.96402 7.66106 6.93233 7.79098 6.90343 7.92349L6.91599 7.94996C7.25245 7.9314 7.35506 7.9314 7.64237 7.93644L7.67616 7.90954C7.72809 7.59876 7.74331 7.5156 7.83545 7.0631L7.8818 6.8552C7.97184 6.44831 8.01708 6.24199 7.94895 6.07394C7.87691 5.88561 7.70408 5.84014 7.54534 5.84014ZM9.17864 6.26615C8.9998 6.30154 8.88574 6.32514 8.77238 6.34039C8.66 6.35895 8.55041 6.37578 8.37757 6.40053L8.36389 6.41334L8.35133 6.42355C8.33332 6.55621 8.32075 6.67088 8.29688 6.80569C8.27664 6.94511 8.2455 7.10352 8.19483 7.33113C8.1556 7.50537 8.13535 7.56608 8.11302 7.62738C8.09124 7.68867 8.06722 7.74823 8.02311 7.91959L8.03344 7.93542L8.0421 7.94995C8.20362 7.94204 8.3093 7.93643 8.41792 7.93542C8.52639 7.93139 8.63878 7.93542 8.81273 7.93643L8.82795 7.92362L8.84428 7.90952C8.86941 7.755 8.87318 7.71342 8.88853 7.63802C8.90375 7.55716 8.93 7.44523 8.99436 7.14625C9.02479 7.00582 9.05872 6.86583 9.09027 6.72253C9.12307 6.5798 9.15742 6.43923 9.19009 6.29881L9.1852 6.28183L9.17864 6.26615ZM9.18245 5.69176C9.01995 5.59292 8.73473 5.62428 8.54277 5.76082C8.35137 5.89463 8.32959 6.08455 8.49153 6.18468C8.65124 6.28079 8.93758 6.25216 9.12786 6.11447C9.31885 5.97779 9.34272 5.7896 9.18245 5.69176ZM10.1652 7.98093C10.494 7.98093 10.831 7.88755 11.0847 7.61044C11.2798 7.3857 11.3693 7.05133 11.4003 6.91364C11.5013 6.45726 11.4227 6.24418 11.324 6.1144C11.174 5.91657 10.909 5.85312 10.6342 5.85312C10.4689 5.85312 10.0752 5.86995 9.76761 6.16217C9.54675 6.37295 9.4447 6.65898 9.38314 6.93321C9.32101 7.21262 9.24953 7.71562 9.69837 7.9028C9.83686 7.96409 10.0365 7.98093 10.1652 7.98093ZM10.1395 6.95407C10.2153 6.60848 10.3048 6.31842 10.5332 6.31842C10.7122 6.31842 10.7252 6.53424 10.6456 6.88098C10.6314 6.95796 10.566 7.24413 10.4777 7.36599C10.416 7.45592 10.3429 7.51045 10.2622 7.51045C10.2382 7.51045 10.0954 7.51045 10.0932 7.2919C10.0921 7.18399 10.1134 7.07378 10.1395 6.95407ZM12.2222 7.93648L12.2479 7.90958C12.2843 7.7106 12.2903 7.66383 12.371 7.26098C12.4114 7.06991 12.4948 6.65007 12.5341 6.50058C12.6083 6.46504 12.6802 6.43023 12.7523 6.43023C12.9174 6.43023 12.8973 6.57972 12.8908 6.63928C12.8848 6.73942 12.8242 7.06588 12.7609 7.3463L12.7217 7.52729C12.6917 7.6611 12.659 7.79088 12.6301 7.92353L12.6427 7.95001C12.9803 7.93145 13.079 7.93145 13.3679 7.93648L13.4029 7.90958C13.4535 7.59866 13.4672 7.5155 13.5621 7.06314L13.6074 6.8551C13.6978 6.44821 13.7436 6.24203 13.6766 6.07398C13.6025 5.88565 13.4285 5.84018 13.272 5.84018C13.1683 5.84018 12.978 5.86594 12.809 5.95198C12.7485 5.98464 12.6879 6.02219 12.6284 6.05989L12.6802 5.85313L12.6525 5.81817C12.292 5.89356 12.2096 5.90363 11.8769 5.95198L11.8514 5.97111C11.811 6.3016 11.7782 6.54993 11.6349 7.19969C11.5803 7.4391 11.5236 7.68081 11.4669 7.91965L11.4821 7.95001C11.824 7.93145 11.9261 7.93145 12.2222 7.93648ZM14.7024 7.94994C14.7236 7.84318 14.8497 7.2104 14.8508 7.2104C14.8508 7.2104 14.9581 6.74611 14.9647 6.72928C14.9647 6.72928 14.9985 6.68093 15.0323 6.6618H15.082C15.5509 6.6618 16.0805 6.6618 16.4955 6.34714C16.7779 6.13132 16.971 5.81263 17.0571 5.42531C17.0795 5.33035 17.096 5.21741 17.096 5.10446C17.096 4.95613 17.0671 4.80937 16.9836 4.6947C16.7719 4.38954 16.3505 4.38392 15.8639 4.38162C15.8624 4.38162 15.6241 4.38392 15.6241 4.38392C15.0013 4.39184 14.7515 4.38954 14.6489 4.37659C14.6403 4.42335 14.6239 4.50651 14.6239 4.50651C14.6239 4.50651 14.4008 5.57207 14.4008 5.57379C14.4008 5.57379 13.867 7.83929 13.8418 7.94605C14.3856 7.93929 14.6086 7.93929 14.7024 7.94994ZM15.1158 6.05708C15.1158 6.05708 15.353 4.99368 15.3518 4.99771L15.3595 4.94318L15.3629 4.9016L15.4577 4.91167C15.4577 4.91167 15.9468 4.95498 15.9583 4.95613C16.1514 5.0331 16.2309 5.23151 16.1754 5.49049C16.1247 5.72717 15.9757 5.92615 15.7843 6.02226C15.6267 6.1037 15.4337 6.11046 15.2347 6.11046H15.106L15.1158 6.05708ZM16.5926 6.97377C16.5299 7.24915 16.4579 7.75215 16.9045 7.93142C17.0469 7.99386 17.1745 8.01242 17.3042 8.00566C17.4411 7.99803 17.568 7.92725 17.6856 7.82538C17.675 7.86725 17.6644 7.90912 17.6537 7.95113L17.674 7.97804C17.9952 7.96408 18.0949 7.96408 18.4429 7.96681L18.4745 7.94207C18.5253 7.63417 18.5732 7.33519 18.7053 6.74615C18.7696 6.46401 18.8338 6.1846 18.8999 5.9036L18.8895 5.87267C18.5302 5.9413 18.4341 5.95598 18.0885 6.00648L18.0622 6.02849C18.0587 6.05712 18.0551 6.0846 18.0518 6.11208C17.998 6.02259 17.9201 5.94619 17.7999 5.89857C17.6462 5.83627 17.2852 5.91655 16.9748 6.20776C16.7568 6.41567 16.6521 6.70054 16.5926 6.97377ZM17.3473 6.9906C17.4242 6.65119 17.5126 6.36401 17.7416 6.36401C17.8863 6.36401 17.9626 6.50171 17.9471 6.73651C17.9348 6.79507 17.9215 6.8568 17.9057 6.92658C17.8828 7.02743 17.858 7.12743 17.8338 7.22757C17.8093 7.29605 17.7806 7.36066 17.7492 7.40367C17.6903 7.48971 17.5502 7.54309 17.4695 7.54309C17.4466 7.54309 17.3053 7.54309 17.3004 7.32843C17.2993 7.22153 17.3206 7.11146 17.3473 6.9906ZM21.2885 5.86992L21.2607 5.83726C20.9051 5.9115 20.8408 5.9233 20.5141 5.96877L20.4901 5.99351C20.489 5.99754 20.488 6.00373 20.4863 6.00934L20.4852 6.00373C20.242 6.58197 20.2491 6.45723 20.0512 6.91246C20.05 6.89174 20.05 6.87879 20.0489 6.85678L19.9994 5.86992L19.9682 5.83726C19.5958 5.9115 19.587 5.9233 19.243 5.96877L19.2162 5.99351C19.2124 6.00531 19.2124 6.01826 19.2102 6.03236L19.2124 6.0374C19.2554 6.26386 19.2451 6.21336 19.2882 6.57075C19.3083 6.74614 19.3351 6.92253 19.3552 7.09576C19.3891 7.38568 19.4081 7.5284 19.4496 7.97083C19.2173 8.36592 19.1623 8.5154 18.9386 8.86215L18.9402 8.8656L18.7827 9.12228C18.7647 9.14933 18.7483 9.16789 18.7254 9.1758C18.7003 9.18861 18.6676 9.19091 18.6223 9.19091H18.535L18.4053 9.63549L18.8502 9.64341C19.1115 9.64226 19.2756 9.51636 19.364 9.34716L19.6438 8.85309H19.6393L19.6688 8.81827C19.857 8.40073 21.2885 5.86992 21.2885 5.86992ZM16.5926 11.7088H16.4038L17.1024 9.32752H17.3342L17.4077 9.08221L17.4149 9.355C17.4062 9.52363 17.5349 9.67312 17.8731 9.64837H18.2641L18.3987 9.18983H18.2515C18.1669 9.18983 18.1277 9.16782 18.1326 9.12063L18.1255 8.84309H17.4013V8.84452C17.1672 8.84956 16.468 8.86769 16.3265 8.90654C16.1552 8.952 15.9747 9.08581 15.9747 9.08581L16.0456 8.84021H15.3682L15.2271 9.32752L14.5191 11.7452H14.3818L14.247 12.2005H15.5962L15.551 12.3523H16.2158L16.2599 12.2005H16.4464L16.5926 11.7088ZM16.039 9.81138C15.9306 9.84232 15.7287 9.93613 15.7287 9.93613L15.9082 9.32752H16.4464L16.3166 9.77095C16.3166 9.77095 16.1503 9.78103 16.039 9.81138ZM16.0494 10.6808C16.0494 10.6808 15.8803 10.7027 15.769 10.7286C15.6594 10.7628 15.4539 10.8708 15.4539 10.8708L15.6393 10.2374H16.1803L16.0494 10.6808ZM15.7478 11.7145H15.2079L15.3644 11.1799H15.9026L15.7478 11.7145ZM17.0479 10.2374H17.8261L17.7143 10.6106H16.9258L16.8074 11.0187H17.4973L16.9749 11.7768C16.9383 11.8324 16.9055 11.8521 16.8691 11.8678C16.8325 11.887 16.7845 11.9094 16.7289 11.9094H16.5375L16.406 12.3563H16.9066C17.1669 12.3563 17.3206 12.2343 17.4341 12.0741L17.7923 11.5689L17.8692 12.0819C17.8856 12.178 17.9526 12.2343 17.9979 12.2562C18.0481 12.2821 18.0999 12.3265 18.173 12.3331C18.2515 12.3366 18.3082 12.3393 18.3458 12.3393H18.5918L18.7395 11.8392H18.6425C18.5868 11.8392 18.4909 11.8296 18.4746 11.8116C18.4582 11.7897 18.4582 11.756 18.4494 11.7048L18.3714 11.1906H18.0518L18.192 11.0187H18.979L19.1 10.6106H18.3714L18.4849 10.2374H19.2113L19.346 9.77714H17.1804L17.0479 10.2374ZM10.4755 11.8184L10.6571 11.1957H11.4036L11.54 10.7325H10.7928L10.9068 10.3492H11.637L11.7723 9.90077H9.94536L9.81287 10.3492H10.2279L10.1172 10.7325H9.70105L9.56312 11.2036H9.97803L9.73595 12.0274C9.70328 12.1365 9.75131 12.1781 9.78174 12.2287C9.81287 12.2781 9.84443 12.3107 9.91535 12.3293C9.9885 12.3461 10.0386 12.3562 10.1067 12.3562H10.9483L11.0982 11.8431L10.7252 11.8959C10.6532 11.8959 10.4537 11.887 10.4755 11.8184ZM10.5611 8.8374L10.3719 9.18976C10.3314 9.26673 10.295 9.3145 10.2622 9.33651C10.2333 9.35508 10.176 9.36284 10.0931 9.36284H9.99441L9.86248 9.81361H10.1903C10.3479 9.81361 10.4689 9.75405 10.5267 9.72427C10.5889 9.69002 10.6052 9.70959 10.6532 9.66182L10.7639 9.56298H11.7875L11.9234 9.09365H11.1741L11.3049 8.8374H10.5611ZM12.0722 11.8274C12.0548 11.8015 12.0674 11.7559 12.094 11.661L12.3738 10.7066H13.3691C13.5141 10.7045 13.6188 10.7027 13.6869 10.6977C13.7601 10.6898 13.8397 10.6629 13.9264 10.6145C14.0159 10.5639 14.0616 10.5105 14.1003 10.4492C14.1435 10.3881 14.2127 10.2543 14.2722 10.0479L14.6238 8.84024L13.591 8.84642C13.591 8.84642 13.273 8.89477 13.133 8.94815C12.9917 9.00771 12.7898 9.17403 12.7898 9.17403L12.8831 8.84297H12.2451L11.3519 11.8959C11.3202 12.0145 11.299 12.1005 11.2941 12.1522C11.2924 12.2078 11.3622 12.2629 11.4074 12.3045C11.4609 12.3461 11.5399 12.3393 11.6157 12.3461C11.6954 12.3523 11.8088 12.3562 11.9653 12.3562H12.4556L12.6061 11.8325L12.1672 11.8752C12.1203 11.8752 12.0863 11.8493 12.0722 11.8274ZM12.5543 10.062H13.5997L13.5332 10.2767C13.5239 10.2817 13.5015 10.2661 13.3952 10.279H12.4899L12.5543 10.062ZM12.7637 9.34208H13.8179L13.7421 9.60063C13.7421 9.60063 13.2452 9.5956 13.1656 9.6107C12.8155 9.67315 12.611 9.86594 12.611 9.86594L12.7637 9.34208ZM13.5566 10.9956C13.548 11.0277 13.5343 11.0472 13.5152 11.0619C13.4939 11.076 13.4596 11.081 13.4084 11.081H13.2594L13.2682 10.8196H12.6486L12.6235 12.0977C12.6225 12.1899 12.6312 12.2433 12.6966 12.286C12.7621 12.3394 12.9639 12.3462 13.2354 12.3462H13.6236L13.7638 11.8678L13.4258 11.8869L13.3134 11.8937C13.2981 11.8869 13.2834 11.8807 13.2671 11.8639C13.2528 11.8493 13.2288 11.8583 13.2327 11.766L13.2354 11.4384L13.5899 11.4233C13.7813 11.4233 13.8631 11.3591 13.9329 11.298C13.9995 11.2394 14.0212 11.1721 14.0464 11.081L14.1058 10.791H13.6188L13.5566 10.9956Z" fill="#FEFEFE"/>
</svg>
